<svg id="Layer_1"  viewBox="0 0 511.998 511.998"  xmlns="http://www.w3.org/2000/svg"><path d="m496.995 444.499h-10.994v-89.968l10.995.001h.002c8.283 0 14.999-6.715 15-14.998.001-8.243-6.649-14.929-14.877-14.996 9.578-13.485 14.469-30.054 14.469-46.54 0-32.229-18.67-64.784-54.59-73.951v-151.548c0-8.284-6.716-15-15-15h-371.999c-8.284 0-15 6.716-15 15v149h-40c-8.284 0-15 6.716-15 15s6.716 15 15 15h17v93h-17c-8.284 0-15 6.716-15 15s6.716 15 15 15h.081c-9.78 12.938-15.082 28.576-15.082 45 0 41.355 33.645 75 75 75h421.995c8.284 0 15-6.716 15-15s-6.716-15-15-15zm-69.995-243h-225.999v-134h225.999zm-255.999-134v134h-30.001v-134zm-86 0h25.999v134h-25.999zm-23 164h373.999c31.493 0 45.59 23.354 45.59 46.5 0 12.294-4.167 24.103-11.433 32.399-8.193 9.357-19.686 14.101-34.157 14.101h-43v-46.5c0-8.284-6.716-15-15-15h-60c-8.284 0-15 6.716-15 15v46.5h-240.999zm300.999 61.5v43.188l-10.257-3.418c-1.539-.513-3.142-.77-4.743-.77s-3.204.257-4.743.77l-10.257 3.419v-43.188h30zm-333 106.5c0-11.953 4.7-23.236 13.233-31.77 8.533-8.532 19.811-13.23 31.761-13.23h.005l228.001.018v2.482c0 4.822 2.318 9.349 6.229 12.168s8.939 3.587 13.514 2.062l25.257-8.418 25.257 8.418c1.549.517 3.149.77 4.742.77 3.109 0 6.185-.967 8.771-2.832 3.911-2.819 6.229-7.347 6.229-12.168v-2.48l63.001.008v89.972h-381c-24.813 0-45-20.187-45-45z"/></svg>