<svg id="Layer_1"  viewBox="0 0 512.002 512.002" xmlns="http://www.w3.org/2000/svg"><g><g><path d="m502.002 432.003h-30.002v-402.003c0-16.542-13.458-30-30-30h-412c-16.542 0-30 13.458-30 30v432.002c0 27.57 22.43 50 50 50h412.001c27.57 0 50-22.43 50-50v-19.999c.001-5.523-4.476-10-9.999-10zm-157.749-58.255c-3.905-3.904-10.237-3.904-14.143 0l-58.255 58.255h-71.714l251.859-251.86v71.715l-58.251 58.251c-3.905 3.905-3.905 10.237 0 14.143 1.953 1.952 4.512 2.929 7.071 2.929s5.119-.977 7.071-2.929l44.109-44.109v71.715l-80.146 80.145h-71.714l44.112-44.112c3.906-3.906 3.906-10.238.001-14.143zm107.747-221.891-280.144 280.146h-71.716l351.86-351.86zm0 228.286v51.86h-51.86zm0-350.143v21.858l-426.883 426.883c-3.229-4.784-5.117-10.545-5.117-16.739v-49.858l392.144-392.144h29.856c5.514 0 10 4.486 10 10zm-268.14-10-50.111 50.111c-3.906 3.905-3.906 10.237 0 14.143 1.953 1.952 4.512 2.929 7.071 2.929s5.119-.977 7.071-2.929l64.254-64.254h71.714l-263.859 263.858v-71.715l64.25-64.25c3.906-3.905 3.906-10.237 0-14.143-3.906-3.905-10.237-3.904-14.142 0l-50.109 50.107v-71.714l92.146-92.143zm-163.86 292.143 292.144-292.143h71.715l-363.859 363.858zm10-292.143h53.86l-63.859 63.859v-53.859c0-5.514 4.486-10 9.999-10zm20 472.002c-2.988 0-5.872-.445-8.597-1.262l38.597-38.597v9.859c0 16.542-13.458 30-30 30zm442.002-30c0 16.542-13.458 30-30 30h-372.025c6.291-8.362 10.023-18.754 10.023-30v-9.999h392.001v9.999z"/><path d="m109.001 119.001c5.523 0 10-4.478 10-10s-4.477-10-10-10h-.007c-5.523 0-9.996 4.478-9.996 10s4.48 10 10.003 10z"/><path d="m369.007 359.002c5.523 0 10-4.478 10-10s-4.477-10-10-10h-.007c-5.523 0-9.996 4.478-9.996 10s4.48 10 10.003 10z"/></g></g></svg>