<svg  viewBox="-76 0 512 512"  xmlns="http://www.w3.org/2000/svg"><path d="m340 76h-60.203125c-12.792969-43.859375-53.359375-76-101.296875-76-11.046875 0-20 8.953125-20 20v56h-138.5c-11.046875 0-20 8.953125-20 20v396c0 11.046875 8.953125 20 20 20h320c11.046875 0 20-8.953125 20-20v-396c0-11.046875-8.953125-20-20-20zm-161.5 396h-138.5v-356h118.5v205c0 11.046875 8.953125 20 20 20 36.117188 0 65.5 29.382812 65.5 65.5s-29.382812 65.5-65.5 65.5zm65.5-148.148438c-13.027344-10.347656-28.546875-17.683593-45.5-20.949218v-259.78125c26.363281 8.476562 45.5 33.234375 45.5 62.378906zm76 148.148438h-58.855469c14.300781-18.007812 22.855469-40.773438 22.855469-65.5v-290.5h36zm0 0"/></svg>