<?xml version="1.0" encoding="iso-8859-1"?>
<!-- Generator: Adobe Illustrator 19.0.0, SVG Export Plug-In . SVG Version: 6.00 Build 0)  -->
<svg xmlns="http://www.w3.org/2000/svg" xmlns:xlink="http://www.w3.org/1999/xlink" version="1.1" id="Layer_1" x="0px" y="0px" viewBox="0 0 512 512" xml:space="preserve">
<path id="_x3C_Group_x3E__9_" d="M446.271,180.974h-68.186c7.774-32.965,14.06-71.806,13.915-109.49l-0.07-18.251l-17.892,3.604  c-35.438,7.137-71.508,0.03-101.573-20.013l-13.59-9.06C223.496,4.177,180.932-4.795,139.028,2.497L127.808,4.45l-3.383,33.82  c-5.324,53.249,2.372,105.825,9.767,140.554c0.153,0.72,0.31,1.434,0.465,2.15H65.729L0,312.433v199.541h512V312.433  L446.271,180.974z M154.276,41.255l1.067-10.677c30.602-2.757,61.085,4.943,86.891,22.146l13.59,9.06  c31.438,20.959,68.384,30.431,105.773,27.119c-3.088,63.001-23.045,127.088-32.927,152.071H301v-30h-30v30h-30v-90h-30v90h-27.621  C172.239,212.412,145.723,126.781,154.276,41.255z M84.271,210.974h57.752c3.103,11.286,6.286,21.44,9.282,30H121v30h270v-30  h-30.376c2.96-8.354,6.266-18.507,9.591-30h57.514l45,90H39.271L84.271,210.974z M482,330.974v91H30v-91H482z M30,481.974v-30h452  v30H30z"/>















</svg>
