<svg viewBox="0 0 64 64"  xmlns="http://www.w3.org/2000/svg"><g id="outline"><path d="m28 56h-16a3 3 0 0 0 0 6h16a7 7 0 0 0 0-14 1 1 0 0 1 -1-1v-1h1a1 1 0 0 0 1-1v-3.764l1.9-3.789s.008-.028.013-.038a2 2 0 0 0 .09-.343l2-30c0-.011 0-.054 0-.066v-4a1 1 0 0 0 -1-1h-16.003a1 1 0 0 0 -1 1v4 .066l2 30a2 2 0 0 0 .09.343c.005.01.012.036.013.038l1.897 3.789v3.764a1 1 0 0 0 1 1h1v1a7.008 7.008 0 0 0 7 7 1 1 0 0 1 0 2zm2.664-44h-13.328l-.267-4h13.862zm-.133 2-1.067 16h-10.928l-1.067-16zm-1.467 22h-10.128l-.267-4h10.662zm-9.446 2h8.764l-1 2h-6.764zm-2.618-34h14v2h-14zm4 38h6v2h-6zm7 10a5.006 5.006 0 0 1 -5-5v-1h2v1a3 3 0 0 0 3 3 5 5 0 0 1 0 10h-16a1 1 0 0 1 0-2h16a3 3 0 0 0 0-6z"/><path d="m37 61a1 1 0 0 0 1 1h16a1 1 0 0 0 1-1v-4c0-.012 0-.055 0-.066l-2-30a2 2 0 0 0 -.09-.343c-.005-.01-.012-.036-.013-.038l-1.897-3.789v-3.764a1 1 0 0 0 -1-1h-1v-1a7.008 7.008 0 0 0 -7-7 1 1 0 0 1 0-2h6a3 3 0 0 0 0-6h-6a7 7 0 0 0 0 14 1 1 0 0 1 1 1v1h-1a1 1 0 0 0 -1 1v3.764l-1.9 3.789s-.008.028-.013.038a2 2 0 0 0 -.09.343l-2 30v.066zm16-1h-14v-2h14zm-13.664-8h13.328l.267 4h-13.862zm3.282-28h6.764l1 2h-8.764zm8.446 4 .267 4h-10.662l.267-4zm-10.528 6h10.928l1.067 16h-13.062zm1.464-20a5 5 0 0 1 0-10h6a1 1 0 0 1 0 2h-6a3 3 0 0 0 0 6 5.006 5.006 0 0 1 5 5v1h-2v-1a3 3 0 0 0 -3-3zm1 6h6v2h-6z"/><path d="m46 36c-2.243 0-4 2.636-4 6s1.757 6 4 6 4-2.636 4-6-1.757-6-4-6zm0 10c-.944 0-2-1.71-2-4s1.056-4 2-4 2 1.71 2 4-1.056 4-2 4z"/><path d="m24 28c2.243 0 4-2.636 4-6s-1.757-6-4-6-4 2.636-4 6 1.757 6 4 6zm0-10c.944 0 2 1.71 2 4s-1.056 4-2 4-2-1.71-2-4 1.056-4 2-4z"/></g></svg>