<svg id="Layer_3"  viewBox="0 0 64 64"  xmlns="http://www.w3.org/2000/svg"><path d="m62 5h-7v-1c0-1.654-1.346-3-3-3s-3 1.346-3 3v1h-4v-1c0-1.654-1.346-3-3-3s-3 1.346-3 3v1h-4v-1c0-1.654-1.346-3-3-3s-3 1.346-3 3v1h-4v-1c0-1.654-1.346-3-3-3s-3 1.346-3 3v1h-4v-1c0-1.654-1.346-3-3-3s-3 1.346-3 3v1h-7c-.552 0-1 .447-1 1v46c0 .553.448 1 1 1h32v10h2v-30h2v30h2v-30h2v30h2v-10h3.127l.877 10.087 1.992-.174-1.558-17.913h7.123l-1.558 17.913 1.992.174.878-10.087h5.127c.552 0 1-.447 1-1v-46c0-.553-.448-1-1-1zm-11-1c0-.552.449-1 1-1s1 .448 1 1v4c0 .552-.449 1-1 1s-1-.448-1-1zm-10 0c0-.552.449-1 1-1s1 .448 1 1v4c0 .552-.449 1-1 1s-1-.448-1-1zm-10 0c0-.552.449-1 1-1s1 .448 1 1v4c0 .552-.449 1-1 1s-1-.448-1-1zm-10 0c0-.552.449-1 1-1s1 .448 1 1v4c0 .552-.449 1-1 1s-1-.448-1-1zm-10 0c0-.552.449-1 1-1s1 .448 1 1v4c0 .552-.449 1-1 1s-1-.448-1-1zm25.618 27 2.382-4.764 2.382 4.764zm17.089-4.879 2.172 2.172c.712.713 1.121 1.699 1.121 2.707s-.409 1.994-1.121 2.707l-1.293 1.293h-1.586v-4h-2v4h-1.561c-1.57-1.692-2.439-3.874-2.439-6.195v-.799c0-1.696.615-3.333 1.732-4.609l3.268-3.735v2.338c0 1.534.622 3.036 1.707 4.121zm-4.089 10.879h4.764l1 2h-6.764zm-1.354 6-.174-2h7.819l-.174 2zm12.736 8h-3.953l.949-10.913c.016-.185-.019-.369-.102-.534l-1.678-3.355 1.076-1.076c1.086-1.086 1.708-2.588 1.708-4.122s-.622-3.036-1.707-4.121l-2.172-2.172c-.712-.713-1.121-1.699-1.121-2.707v-5c0-.417-.258-.79-.648-.937-.389-.146-.83-.036-1.104.278l-5.021 5.738c-1.436 1.641-2.227 3.746-2.227 5.927v.799c0 2.734.979 5.317 2.793 7.372l-1.688 3.376c-.083.165-.118.35-.102.534l.95 10.913h-2.953v-19c0-.155-.036-.309-.105-.447l-4-8c-.339-.678-1.45-.678-1.789 0l-4 8c-.07.138-.106.292-.106.447v19h-31v-44h6v1c0 1.654 1.346 3 3 3s3-1.346 3-3v-1h4v1c0 1.654 1.346 3 3 3s3-1.346 3-3v-1h4v1c0 1.654 1.346 3 3 3s3-1.346 3-3v-1h4v1c0 1.654 1.346 3 3 3s3-1.346 3-3v-1h4v1c0 1.654 1.346 3 3 3s3-1.346 3-3v-1h6z"/><path d="m32 29c0-4.411-3.589-8-8-8-.411 0-.822.032-1.228.095-.855-3.543-4.022-6.095-7.772-6.095-4.411 0-8 3.589-8 8 0 1.608.488 3.179 1.388 4.5-.9 1.321-1.388 2.892-1.388 4.5 0 4.092 3.088 7.476 7.056 7.944.468 3.968 3.852 7.056 7.944 7.056 4.411 0 8-3.589 8-8 0-1.336-.33-2.63-.961-3.794 1.87-1.512 2.961-3.767 2.961-6.206zm-4.835 5.09c-.234.146-.397.383-.452.653-.054.271.007.552.167.776.733 1.026 1.12 2.229 1.12 3.481 0 3.309-2.691 6-6 6s-6-2.691-6-6c0-.553-.448-1-1-1-3.309 0-6-2.691-6-6 0-1.408.5-2.777 1.407-3.856.313-.372.313-.915 0-1.287-.907-1.08-1.407-2.449-1.407-3.857 0-3.309 2.691-6 6-6 3.099 0 5.665 2.322 5.97 5.401.029.298.191.566.44.733.249.165.56.21.845.125.568-.172 1.155-.259 1.745-.259 3.309 0 6 2.691 6 6 0 2.08-1.06 3.982-2.835 5.09z"/><path d="m32 13c-2.206 0-4 1.794-4 4s1.794 4 4 4 4-1.794 4-4-1.794-4-4-4zm0 6c-1.103 0-2-.897-2-2s.897-2 2-2 2 .897 2 2-.897 2-2 2z"/><path d="m8 43c-1.654 0-3 1.346-3 3s1.346 3 3 3 3-1.346 3-3-1.346-3-3-3zm0 4c-.551 0-1-.448-1-1s.449-1 1-1 1 .448 1 1-.449 1-1 1z"/></svg>