<?xml version="1.0" encoding="iso-8859-1"?>
<!-- Generator: Adobe Illustrator 19.0.0, SVG Export Plug-In . SVG Version: 6.00 Build 0)  -->
<svg version="1.1" id="Capa_1" xmlns="http://www.w3.org/2000/svg" xmlns:xlink="http://www.w3.org/1999/xlink" x="0px" y="0px"
	 viewBox="0 0 512 512" xml:space="preserve">
<g>
	<g>
		<path d="M307.2,426.667H204.8c-14.114,0-25.6,11.486-25.6,25.6c0,14.114,11.486,25.6,25.6,25.6h102.4
			c14.114,0,25.6-11.486,25.6-25.6C332.8,438.153,321.314,426.667,307.2,426.667z M307.2,460.8H204.8
			c-4.71,0-8.533-3.823-8.533-8.533c0-4.71,3.823-8.533,8.533-8.533h102.4c4.71,0,8.533,3.823,8.533,8.533
			C315.733,456.977,311.91,460.8,307.2,460.8z"/>
	</g>
</g>
<g>
	<g>
		<path d="M307.2,392.533H204.8c-14.114,0-25.6,11.486-25.6,25.6s11.486,25.6,25.6,25.6h102.4c14.114,0,25.6-11.486,25.6-25.6
			S321.314,392.533,307.2,392.533z M307.2,426.667H204.8c-4.71,0-8.533-3.823-8.533-8.533s3.823-8.533,8.533-8.533h102.4
			c4.71,0,8.533,3.823,8.533,8.533S311.91,426.667,307.2,426.667z"/>
	</g>
</g>
<g>
	<g>
		<path d="M307.2,460.8H204.8c-4.71,0-8.533,3.814-8.533,8.533v23.211c0,10.735,8.73,19.456,19.456,19.456h80.555
			c10.726,0,19.456-8.721,19.456-19.456v-23.211C315.733,464.614,311.91,460.8,307.2,460.8z M298.667,492.544
			c0,1.314-1.075,2.389-2.389,2.389h-80.555c-1.314,0-2.389-1.075-2.389-2.389v-14.677h85.333V492.544z"/>
	</g>
</g>
<g>
	<g>
		<path d="M256,0C249.028,0,85.333,0.964,85.333,85.333c0,2.185,0.307,54.076,27.034,98.603l54.656,81.971
			c19.132,28.698,29.244,62.106,29.244,96.606v38.554c0,4.719,3.823,8.533,8.533,8.533h102.4c4.71,0,8.533-3.814,8.533-8.533
			v-38.554c0-34.5,10.112-67.908,29.244-96.606l54.869-82.313c26.513-44.186,26.82-96.077,26.82-98.261
			C426.667,0.964,262.972,0,256,0z M385.434,174.464l-54.656,81.971c-21.009,31.522-32.111,68.198-32.111,106.078v30.02h-85.333
			v-30.02c0-37.879-11.102-74.556-32.119-106.078l-54.434-81.63c-24.013-40.03-24.38-88.986-24.38-89.472
			c0-55.945,110.882-68.241,153.6-68.267c42.726,0,153.6,12.271,153.6,68.267C409.6,85.828,409.318,134.63,385.434,174.464z"/>
	</g>
</g>
<g>
	<g>
		<path d="M273.067,238.933h-34.133c-4.71,0-8.533,3.814-8.533,8.533v153.6c0,4.719,3.823,8.533,8.533,8.533h34.133
			c4.71,0,8.533-3.814,8.533-8.533v-153.6C281.6,242.748,277.777,238.933,273.067,238.933z M264.533,392.533h-17.067V256h17.067
			V392.533z"/>
	</g>
</g>
<g>
	<g>
		<path d="M365.227,114.347l-25.6-34.133c-3.226-4.301-10.428-4.301-13.653,0L307.2,105.242l-18.773-25.028
			c-3.226-4.301-10.428-4.301-13.653,0L256,105.242l-18.773-25.028c-3.226-4.301-10.428-4.301-13.653,0L204.8,105.25l-18.773-25.028
			c-3.226-4.301-10.428-4.301-13.653,0l-25.6,34.133c-2.825,3.763-2.065,9.114,1.707,11.938c3.772,2.833,9.122,2.074,11.947-1.707
			L179.2,99.558l18.773,25.028c3.226,4.301,10.428,4.301,13.653,0L230.4,99.558l18.773,25.028c3.226,4.301,10.428,4.301,13.653,0
			L281.6,99.558l18.773,25.028c3.226,4.301,10.428,4.301,13.653,0L332.8,99.558l18.773,25.028c1.681,2.236,4.241,3.413,6.835,3.413
			c1.775,0,3.576-0.555,5.112-1.715C367.292,123.46,368.051,118.11,365.227,114.347z"/>
	</g>
</g>
<g>
	<g>
		<path d="M153.6,145.067c-4.71,0-8.533,3.814-8.533,8.533c0,4.719,3.823,8.533,8.533,8.533c42.351,0,76.8,38.281,76.8,85.333
			c0,4.719,3.823,8.533,8.533,8.533s8.533-3.814,8.533-8.533C247.467,191.002,205.355,145.067,153.6,145.067z"/>
	</g>
</g>
<g>
	<g>
		<path d="M358.4,145.067c-51.755,0-93.867,45.935-93.867,102.4c0,4.719,3.823,8.533,8.533,8.533c4.71,0,8.533-3.814,8.533-8.533
			c0-47.053,34.449-85.333,76.8-85.333c4.71,0,8.533-3.814,8.533-8.533C366.933,148.881,363.11,145.067,358.4,145.067z"/>
	</g>
</g>
<g>
</g>
<g>
</g>
<g>
</g>
<g>
</g>
<g>
</g>
<g>
</g>
<g>
</g>
<g>
</g>
<g>
</g>
<g>
</g>
<g>
</g>
<g>
</g>
<g>
</g>
<g>
</g>
<g>
</g>
</svg>
