<svg id="Capa_1" viewBox="0 0 511.772 511.772"  xmlns="http://www.w3.org/2000/svg"><g><path d="m353.388 327.085h-12.752v-79.365c19.31-10.804 28.078-34.591 19.591-55.642-2.399-5.951-5.951-11.095-10.286-15.3 12.587-12.275 17.256-31.411 10.286-48.7-2.399-5.951-5.952-11.096-10.286-15.3 12.587-12.275 17.256-31.411 10.286-48.7-3.96-9.824-11.046-17.465-19.648-22.261-1.174-23.257-20.463-41.817-44.006-41.817h-81.374c-24.296 0-44.062 19.767-44.062 44.063v48.508c-19.31 10.804-28.078 34.591-19.591 55.642 2.399 5.951 5.944 11.103 10.278 15.307-12.581 12.275-17.247 31.407-10.278 48.693 2.399 5.951 5.944 11.103 10.278 15.307-12.581 12.275-17.247 31.407-10.278 48.693 3.952 9.804 11.013 17.441 19.591 22.237v28.634h-12.752c-8.284 0-15 6.716-15 15v59.308c0 8.284 6.716 15 15 15h11.431c2.879 34.754 32.064 62.161 67.549 62.161h3.522v18.219c0 8.284 6.716 15 15 15s15-6.716 15-15v-18.219h3.522c35.485 0 64.67-27.406 67.549-62.161h11.431c8.284 0 15-6.716 15-15v-59.308c-.001-8.284-6.717-14.999-15.001-14.999zm-180.003 59.307v-29.308h165.003v29.308zm14.095-268.467 125.852-50.741c1.79-.722 3.64-1.063 5.461-1.063 5.803 0 11.31 3.471 13.609 9.174 3.021 7.494-.618 16.049-8.111 19.071l-125.851 50.741c-3.63 1.462-7.613 1.426-11.215-.106s-6.392-4.375-7.855-8.005c-3.022-7.495.617-16.05 8.11-19.071zm0 64 125.852-50.741c1.79-.722 3.64-1.063 5.461-1.063 5.803 0 11.31 3.471 13.609 9.174 3.021 7.494-.618 16.049-8.111 19.071l-125.851 50.741c-3.63 1.463-7.613 1.426-11.215-.106s-6.392-4.375-7.855-8.005c-3.022-7.495.617-16.05 8.11-19.071zm10.96 91.182c-3.63 1.463-7.613 1.426-11.215-.106s-6.392-4.375-7.855-8.005c-3.021-7.494.618-16.049 8.111-19.07l125.852-50.741c1.79-.722 3.64-1.063 5.461-1.063 5.803 0 11.31 3.471 13.609 9.174 3.021 7.494-.618 16.049-8.111 19.071zm16.759-243.107h81.374c5.28 0 9.886 2.929 12.29 7.245-2.268.52-4.523 1.219-6.748 2.116l-100.978 40.712v-36.01c0-7.754 6.308-14.063 14.062-14.063zm-14.062 273.414c2.864-.534 5.717-1.354 8.521-2.484l100.978-40.712v66.866h-109.499zm73.271 145.139h-37.044c-18.927 0-34.647-13.983-37.379-32.161h111.802c-2.732 18.178-18.452 32.161-37.379 32.161z"/></g></svg>