<svg viewBox="0 0 48 59" xmlns="http://www.w3.org/2000/svg"><g id="Page-1"><g id="006---Recycle-PS" ><path id="Shape" d="m6.58 43h17.42c1.1032019-.0032948 1.9967052-.8967981 2-2-.0081672-1.1011688-.8988312-1.9918328-2-2h-17.66c-.65332566.007947-1.25902221-.3409035-1.58-.91-.33490518-.5666516-.33872632-1.2697417-.01-1.84l3.09-5.37 1.58.91-.76-6.35-5.88 2.51 1.6.93-3.09 5.37c-1.06949533 1.8333815-1.05030983 4.1049446.05 5.92 1.13361256 1.7926003 3.11932421 2.8650362 5.24 2.83z"/><path id="Shape" d="m43.25 36.25c.3287263.5702583.3249052 1.2733484-.01 1.84-.3209778.5690965-.9266743.917947-1.58.91h-6.65v-2l-5.01 4 5.01 4v-2h6.41c2.1206758.0350362 4.1063874-1.0373997 5.24-2.83 1.1003098-1.8150554 1.1194953-4.0866185.05-5.92l-8.82-15.32c-.3572656-.6198558-1.0180817-1.0020273-1.7335254-1.0025541s-1.3768219.380671-1.735 1-.3587402 1.3826983-.0014746 2.0025541z"/><path id="Shape" d="m10.6 22.06c.4601471.2665577 1.0073398.3393978 1.5211939.202495.5138541-.1369027.9522741-.472333 1.2188061-.932495l9.07-15.75c.3271623-.56911306.9335513-.91996718 1.59-.91996718s1.2628377.35085412 1.59.91996718l3.08 5.35-1.6.93 5.88 2.51.76-6.35-1.58.91-3.08-5.35c-1.0399288-1.80646654-2.965588-2.91986584-5.05-2.91986584s-4.0100712 1.1133993-5.05 2.91986584l-9.08 15.75c-.55123402.9555913-.22461131 2.1770707.73 2.73z"/><path id="Shape" d="m18 58v-4h2.5c1.9329966 0 3.5-1.5670034 3.5-3.5s-1.5670034-3.5-3.5-3.5h-3.5c-.5522847 0-1 .4477153-1 1v10c0 .5522847.4477153 1 1 1s1-.4477153 1-1zm0-9h2.5c.8284271 0 1.5.6715729 1.5 1.5s-.6715729 1.5-1.5 1.5h-2.5z"/><path id="Shape" d="m30.5 57h-1c-.8284271 0-1.5-.6715729-1.5-1.5 0-.5522847-.4477153-1-1-1s-1 .4477153-1 1c0 1.9329966 1.5670034 3.5 3.5 3.5h1c.9282342-.0011655 1.8184575-.3688274 2.477-1.023 1.0027904-1.0010659 1.3030697-2.5079834.760597-3.8169697-.5424726-1.3089863-1.8206571-2.1617537-3.237597-2.1600303h-1c-.8284271 0-1.5-.6715729-1.5-1.5s.6715729-1.5 1.5-1.5h1c.8284271 0 1.5.6715729 1.5 1.5 0 .5522847.4477153 1 1 1s1-.4477153 1-1c0-1.9329966-1.5670034-3.5-3.5-3.5h-1c-1.9329966 0-3.5 1.5670034-3.5 3.5s1.5670034 3.5 3.5 3.5h1c.8284271 0 1.5.6715729 1.5 1.5s-.6715729 1.5-1.5 1.5z"/><path id="Shape" d="m23.5 33c2.4852814 0 4.5-2.0147186 4.5-4.5s-2.0147186-4.5-4.5-4.5c-.824772.0034944-1.6323983.2357779-2.333.671.0299192-.194774.0720015-.3874842.126-.577.1875436-.6756955.6043813-1.2650666 1.179-1.667.8436762-.4664316 1.8470553-.5480131 2.755-.224.4036789.1407512.7046691.481924.794.9.1145991.5406868.6458132.8860991 1.1865.7715s.8860991-.6458132.7715-1.1865c-.2242222-1.0586059-.9650168-1.9338854-1.972-2.33-1.5109247-.5771223-3.2017972-.4400146-4.6.373-.9782375.6573705-1.6945752 1.63738-2.024 2.769-.3420597 1.621636-.4708157 3.2810085-.383 4.936h.006c0 .022-.006.042-.006.064.0027556 2.4841391 2.0158609 4.4972444 4.5 4.5zm0-7c1.3807119 0 2.5 1.1192881 2.5 2.5s-1.1192881 2.5-2.5 2.5-2.5-1.1192881-2.5-2.5 1.1192881-2.5 2.5-2.5z"/></g></g></svg>