<svg viewBox="0 0 48 59" xmlns="http://www.w3.org/2000/svg"><g id="Page-1" ><g id="003---Recycle-PVC"><path id="Shape" d="m6.58 43h17.42c1.1032019-.0032948 1.9967052-.8967981 2-2-.0081672-1.1011688-.8988312-1.9918328-2-2h-17.66c-.65332566.007947-1.25902221-.3409035-1.58-.91-.33490518-.5666516-.33872632-1.2697417-.01-1.84l3.09-5.37 1.58.91-.76-6.35-5.88 2.51 1.6.93-3.09 5.37c-1.06949533 1.8333815-1.05030983 4.1049446.05 5.92 1.13361256 1.7926003 3.11932421 2.8650362 5.24 2.83z"/><path id="Shape" d="m43.25 36.25c.3287263.5702583.3249052 1.2733484-.01 1.84-.3209778.5690965-.9266743.917947-1.58.91h-6.65v-2l-5.01 4 5.01 4v-2h6.41c2.1206758.0350362 4.1063874-1.0373997 5.24-2.83 1.1003098-1.8150554 1.1194953-4.0866185.05-5.92l-8.82-15.32c-.3572656-.6198558-1.0180817-1.0020273-1.7335254-1.0025541s-1.3768219.380671-1.735 1-.3587402 1.3826983-.0014746 2.0025541z"/><path id="Shape" d="m10.6 22.06c.4601471.2665577 1.0073398.3393978 1.5211939.202495.5138541-.1369027.9522741-.472333 1.2188061-.932495l9.07-15.75c.3271623-.56911306.9335513-.91996718 1.59-.91996718s1.2628377.35085412 1.59.91996718l3.08 5.35-1.6.93 5.88 2.51.76-6.35-1.58.91-3.08-5.35c-1.0399288-1.80646654-2.965588-2.91986584-5.05-2.91986584s-4.0100712 1.1133993-5.05 2.91986584l-9.08 15.75c-.55123402.9555913-.22461131 2.1770707.73 2.73z"/><path id="Shape" d="m23.744 57-2.786-9.287c-.1585057-.5290888-.7159112-.8295057-1.245-.671s-.8295057.7159112-.671 1.245l3 10c.1267875.4231833.5162318.7130307.958.713h2c.4417682.0000307.8312125-.2898167.958-.713l3-10c.1025352-.3422604.0146879-.713224-.2304507-.9731523-.2451386-.2599284-.6103262-.3693321-.958-.287-.3476739.0823321-.6250141.3438919-.7275493.6861523l-2.786 9.287z"/><path id="Shape" d="m24 31c-1.033471.0629646-1.9252209-.7173167-2-1.75 0-.5522847-.4477153-1-1-1s-1 .4477153-1 1c.1335818 2.1110592 1.8847187 3.7548913 4 3.7548913s3.8664182-1.6438321 4-3.7548913c-.0072247-1.0596673-.4756235-2.0636399-1.283-2.75.8073765-.6863601 1.2757753-1.6903327 1.283-2.75-.1335818-2.1110592-1.8847187-3.7548913-4-3.7548913s-3.8664182 1.6438321-4 3.7548913c0 .5522847.4477153 1 1 1s1-.4477153 1-1c.1346752-1.001559.989427-1.7490688 2-1.7490688s1.8653248.7475098 2 1.7490688c-.0747791 1.0326833-.966529 1.8129646-2 1.75-.5522847 0-1 .4477153-1 1s.4477153 1 1 1c.6817137-.092395 1.3550351.2194987 1.7254056.7992367.3703705.5797379.3703705 1.3217887 0 1.9015266-.3703705.579738-1.0436919.8916317-1.7254056.7992367z"/><path id="Shape" d="m11 47c-.5522847 0-1 .4477153-1 1v10c0 .5522847.4477153 1 1 1s1-.4477153 1-1v-4h2.5c1.9329966 0 3.5-1.5670034 3.5-3.5s-1.5670034-3.5-3.5-3.5zm5 3.5c0 .8284271-.6715729 1.5-1.5 1.5h-2.5v-3h2.5c.8284271 0 1.5.6715729 1.5 1.5z"/><path id="Shape" d="m32.587 49.587c.4821916-.4846879 1.1793479-.6880678 1.846517-.5386804.667169.1493874 1.2110264.6306456 1.440483 1.2746804.108053.3474029.396258.6087115.7525526.6823215.3562945.0736101.7244559-.0520941.9613323-.328235s.3050891-.6591439.1781151-1.0000865c-.6538857-1.8270643-2.5248426-2.9212462-4.4378309-2.5953534-1.9129884.3258928-3.31612 1.9778418-3.3281691 3.9183534v4c.0011531 1.6169625.975708 3.0741968 2.4696515 3.6928256 1.4939436.6186287 3.2134069.2769633 4.3573485-.8658256.4297306-.4246697.7531647-.9447683.944-1.518.1424045-.5155043-.146001-1.0518067-.654586-1.2172307s-1.0573047.0985924-1.245414.5992307c-.0934806.272999-.2496589.5202814-.456.722-.5717659.5724024-1.4320726.7439489-2.1796558.4346268s-1.2351716-1.0385775-1.2353442-1.8476268v-4c-.0012405-.5305618.2101841-1.0394935.587-1.413z"/></g></g></svg>