<svg viewBox="0 0 48 59" xmlns="http://www.w3.org/2000/svg"><g id="Page-1" ><g id="004---Recycle-LDPE" ><path id="Shape" d="m6.58 43h17.42c1.1032019-.0032948 1.9967052-.8967981 2-2-.0081672-1.1011688-.8988312-1.9918328-2-2h-17.66c-.65332566.007947-1.25902221-.3409035-1.58-.91-.33490518-.5666516-.33872632-1.2697417-.01-1.84l3.09-5.37 1.58.91-.76-6.35-5.88 2.51 1.6.93-3.09 5.37c-1.06949533 1.8333815-1.05030983 4.1049446.05 5.92 1.13361256 1.7926003 3.11932421 2.8650362 5.24 2.83z"/><path id="Shape" d="m43.25 36.25c.3287263.5702583.3249052 1.2733484-.01 1.84-.3209778.5690965-.9266743.917947-1.58.91h-6.65v-2l-5.01 4 5.01 4v-2h6.41c2.1206758.0350362 4.1063874-1.0373997 5.24-2.83 1.1003098-1.8150554 1.1194953-4.0866185.05-5.92l-8.82-15.32c-.3572656-.6198558-1.0180817-1.0020273-1.7335254-1.0025541s-1.3768219.380671-1.735 1-.3587402 1.3826983-.0014746 2.0025541z"/><path id="Shape" d="m10.6 22.06c.4601471.2665577 1.0073398.3393978 1.5211939.202495.5138541-.1369027.9522741-.472333 1.2188061-.932495l9.07-15.75c.3271623-.56911306.9335513-.91996718 1.59-.91996718s1.2628377.35085412 1.59.91996718l3.08 5.35-1.6.93 5.88 2.51.76-6.35-1.58.91-3.08-5.35c-1.0399288-1.80646654-2.965588-2.91986584-5.05-2.91986584s-4.0100712 1.1133993-5.05 2.91986584l-9.08 15.75c-.55123402.9555913-.22461131 2.1770707.73 2.73z"/><path id="Shape" d="m25 48v10c0 .5522847.4477153 1 1 1s1-.4477153 1-1v-4h2.5c1.9329966 0 3.5-1.5670034 3.5-3.5s-1.5670034-3.5-3.5-3.5h-3.5c-.5522847 0-1 .4477153-1 1zm2 1h2.5c.8284271 0 1.5.6715729 1.5 1.5s-.6715729 1.5-1.5 1.5h-2.5z"/><path id="Shape" d="m6 47c-.55228475 0-1 .4477153-1 1v10c0 .5522847.44771525 1 1 1h6c.5522847 0 1-.4477153 1-1s-.4477153-1-1-1h-5v-9c0-.5522847-.44771525-1-1-1z"/><path id="Shape" d="m16 47c-.5522847 0-1 .4477153-1 1v10c0 .5522847.4477153 1 1 1h3c2.209139 0 4-1.790861 4-4v-4c0-2.209139-1.790861-4-4-4zm5 4v4c0 1.1045695-.8954305 2-2 2h-2v-8h2c1.1045695 0 2 .8954305 2 2z"/><path id="Shape" d="m42 49c.5522847 0 1-.4477153 1-1s-.4477153-1-1-1h-6c-.5522847 0-1 .4477153-1 1v10c0 .5522847.4477153 1 1 1h6c.5522847 0 1-.4477153 1-1s-.4477153-1-1-1h-5v-3h5c.5522847 0 1-.4477153 1-1s-.4477153-1-1-1h-5v-3z"/><path id="Shape" d="m24 33c.5522847 0 1-.4477153 1-1v-2h2c.5522847 0 1-.4477153 1-1s-.4477153-1-1-1h-2v-7c.0000017-.446111-.2954936-.8382673-.7243172-.9612524-.4288236-.1229852-.8872457.0529503-1.1236828.4312524l-5 8c-.1926687.3082691-.2028706.696814-.0266446 1.014769.1762261.3179551.5111187.5152319.8746446.515231h4v2c0 .5522847.4477153 1 1 1zm-3.2-5 2.2-3.513v3.513z"/></g></g></svg>