<svg viewBox="0 0 48 59" xmlns="http://www.w3.org/2000/svg"><g id="Page-1"><g id="005---Recycle-PP" ><path id="Shape" d="m6.58 43h17.42c1.1032019-.0032948 1.9967052-.8967981 2-2-.0081672-1.1011688-.8988312-1.9918328-2-2h-17.66c-.65332566.007947-1.25902221-.3409035-1.58-.91-.33490518-.5666516-.33872632-1.2697417-.01-1.84l3.09-5.37 1.58.91-.76-6.35-5.88 2.51 1.6.93-3.09 5.37c-1.06949533 1.8333815-1.05030983 4.1049446.05 5.92 1.13361256 1.7926003 3.11932421 2.8650362 5.24 2.83z"/><path id="Shape" d="m43.25 36.25c.3287263.5702583.3249052 1.2733484-.01 1.84-.3209778.5690965-.9266743.917947-1.58.91h-6.65v-2l-5.01 4 5.01 4v-2h6.41c2.1206758.0350362 4.1063874-1.0373997 5.24-2.83 1.1003098-1.8150554 1.1194953-4.0866185.05-5.92l-8.82-15.32c-.3572656-.6198558-1.0180817-1.0020273-1.7335254-1.0025541s-1.3768219.380671-1.735 1-.3587402 1.3826983-.0014746 2.0025541z"/><path id="Shape" d="m10.6 22.06c.4601471.2665577 1.0073398.3393978 1.5211939.202495.5138541-.1369027.9522741-.472333 1.2188061-.932495l9.07-15.75c.3271623-.56911306.9335513-.91996718 1.59-.91996718s1.2628377.35085412 1.59.91996718l3.08 5.35-1.6.93 5.88 2.51.76-6.35-1.58.91-3.08-5.35c-1.0399288-1.80646654-2.965588-2.91986584-5.05-2.91986584s-4.0100712 1.1133993-5.05 2.91986584l-9.08 15.75c-.55123402.9555913-.22461131 2.1770707.73 2.73z"/><path id="Shape" d="m26 53v5c0 .5522847.4477153 1 1 1s1-.4477153 1-1v-4h2.5c1.9329966 0 3.5-1.5670034 3.5-3.5s-1.5670034-3.5-3.5-3.5h-3.5c-.5522847 0-1 .4477153-1 1zm2-4h2.5c.8284271 0 1.5.6715729 1.5 1.5s-.6715729 1.5-1.5 1.5h-2.5z"/><path id="Shape" d="m23.5 31c-1.2357485.0077341-2.2843032-.9049842-2.447-2.13-.0676549-.5481426-.5668574-.9376548-1.115-.87-.5481426.0676549-.9376549.5668574-.87 1.115.2407001 1.7806523 1.5215764 3.2454364 3.2542214 3.7214618 1.7326451.4760253 3.5821056-.128733 4.6987786-1.5364618.861423-1.082211 1.1797778-2.4993321.864-3.846-.3362804-1.4382066-1.3605603-2.6178519-2.7373655-3.1525763-1.3768052-.5347243-2.928786-.3556485-4.1476345.4785763v-2.78h6c.5522847 0 1-.4477153 1-1s-.4477153-1-1-1h-6c-1.1045695 0-2 .8954305-2 2v2.78c-.0093507.7249601.386939 1.3944467 1.027 1.735.667264.3509474 1.4730529.3087394 2.1-.11.5810462-.3789214 1.2924729-.5018929 1.967-.34 1.2428783.2887166 2.0688863 1.4670879 1.9164049 2.7339159s-1.234515 2.2155383-2.5104049 2.2010841z"/><path id="Shape" d="m18 58v-4h2.5c1.9329966 0 3.5-1.5670034 3.5-3.5s-1.5670034-3.5-3.5-3.5h-3.5c-.5522847 0-1 .4477153-1 1v10c0 .5522847.4477153 1 1 1s1-.4477153 1-1zm0-9h2.5c.8284271 0 1.5.6715729 1.5 1.5s-.6715729 1.5-1.5 1.5h-2.5z"/></g></g></svg>