<?xml version="1.0" encoding="iso-8859-1"?>
<!-- Generator: Adobe Illustrator 19.0.0, SVG Export Plug-In . SVG Version: 6.00 Build 0)  -->
<svg version="1.1" id="Capa_1" xmlns="http://www.w3.org/2000/svg" xmlns:xlink="http://www.w3.org/1999/xlink" x="0px" y="0px"
	 viewBox="0 0 511.997 511.997"  xml:space="preserve">
<g>
	<g>
		<path d="M397.755,148.809c0-2.194-0.946-4.162-2.445-5.535l-22.354-32.01c6.724-0.208,12.133-5.729,12.133-12.502v-19.17
			c0-6.905-5.617-12.522-12.522-12.522H234.057V31.542C234.057,14.15,219.907,0,202.516,0h-11.213
			C173.91,0,159.76,14.15,159.76,31.542V67.07h-20.33c-6.905,0-12.522,5.617-12.522,12.522v19.169
			c0,6.773,5.409,12.294,12.133,12.502l-22.357,32.013c-1.498,1.373-2.442,3.34-2.442,5.532c0,0.296,0.022,0.586,0.055,0.873
			c-0.033,0.378-0.055,0.758-0.055,1.14v277.425c0,0.193,0.013,0.384,0.022,0.575c-0.008,0.144-0.022,0.286-0.022,0.431
			c0,1.115,0.249,2.169,0.685,3.121c0.387,1.142,0.929,2.232,1.633,3.24l22.481,32.191c-6.724,0.208-12.133,5.729-12.133,12.502
			v19.169c0,6.905,5.617,12.522,12.522,12.522h233.136c6.905,0,12.522-5.617,12.522-12.522v-19.169
			c0-6.773-5.409-12.294-12.133-12.502l22.483-32.195c0.702-1.006,1.243-2.095,1.63-3.234c0.436-0.952,0.686-2.007,0.686-3.123
			c0-0.146-0.014-0.288-0.022-0.431c0.008-0.192,0.022-0.382,0.022-0.575V150.823c0-0.383-0.022-0.762-0.055-1.14
			C397.732,149.396,397.755,149.105,397.755,148.809z M191.302,15.026h11.213c9.107,0,16.516,7.409,16.516,16.516V67.07h-44.244
			V31.542h-0.001C174.786,22.435,182.195,15.026,191.302,15.026z M141.935,82.097h25.339h59.271h143.518v14.161h-11.505H153.438
			h-11.504V82.097z M157.355,111.284h197.285l20.959,30.012H233.584h-62.106h-35.082L157.355,111.284z M129.269,156.322h31.537
			c-6.653,21.12-18.648,73.176-7.788,150.87c0.013,0.095,0.028,0.191,0.046,0.285c0.148,0.829,13.921,78.3,11.632,114.264h-35.427
			V156.322z M370.063,496.974H141.935v-14.161h11.504h205.119h11.505V496.974z M382.729,421.741h-57.108v0
			c-4.15,0-7.513,3.364-7.513,7.513s3.363,7.513,7.513,7.513h50.682l-21.663,31.019H157.355l-21.663-31.019h35.786h62.106h40.447
			c4.15,0,7.513-3.364,7.513-7.513s-3.363-7.513-7.513-7.513h-31.029c2.803-16.524,5.374-54.029-9.813-117.309
			c-4.395-18.312-7.02-38.51-7.589-58.408c-0.119-4.147-3.542-7.398-7.725-7.295c-4.147,0.119-7.414,3.578-7.295,7.725
			c0.608,21.218,3.299,41.904,7.998,61.485c15.636,65.148,11.57,101.344,9.129,113.802h-47.973
			c2.035-38.093-10.962-111.785-11.852-116.77c-11.307-81.08,3.583-133.563,8.798-148.649h46.054
			c-3.79,11.066-6.749,23.176-8.817,36.103c-0.655,4.098,2.135,7.95,6.232,8.606c4.102,0.659,7.951-2.134,8.606-6.232
			c2.245-14.034,5.604-26.958,9.966-38.477h144.008V421.741z"/>
	</g>
</g>
<g>
	<g>
		<path d="M196.834,20.245c-9.754,0-17.689,7.935-17.689,17.689c0,9.754,7.935,17.689,17.689,17.689
			c9.754,0,17.689-7.935,17.689-17.689C214.523,28.18,206.589,20.245,196.834,20.245z M196.834,40.597
			c-1.468,0-2.663-1.195-2.663-2.663c0-1.469,1.195-2.663,2.663-2.663c1.468,0,2.663,1.194,2.663,2.663
			C199.497,39.402,198.302,40.597,196.834,40.597z"/>
	</g>
</g>
<g>
</g>
<g>
</g>
<g>
</g>
<g>
</g>
<g>
</g>
<g>
</g>
<g>
</g>
<g>
</g>
<g>
</g>
<g>
</g>
<g>
</g>
<g>
</g>
<g>
</g>
<g>
</g>
<g>
</g>
</svg>
