<?xml version="1.0" encoding="iso-8859-1"?>
<!-- Generator: Adobe Illustrator 19.0.0, SVG Export Plug-In . SVG Version: 6.00 Build 0)  -->
<svg version="1.1" id="Capa_1" xmlns="http://www.w3.org/2000/svg" xmlns:xlink="http://www.w3.org/1999/xlink" x="0px" y="0px"
	 viewBox="0 0 511.998 511.998"  xml:space="preserve">
<g>
	<g>
		<path d="M500.942,241.455c9.124-9.846,12.856-23.046,10.237-36.213c-2.619-13.167-11.117-23.935-23.317-29.541
			c-10.103-4.643-14.993-16.448-11.132-26.875c4.662-12.589,3.059-26.211-4.4-37.375c-7.458-11.162-19.431-17.858-32.847-18.369
			c-11.11-0.422-20.146-9.457-20.568-20.568c-0.511-13.416-7.207-25.388-18.369-32.847c-11.163-7.459-24.785-9.062-37.376-4.4
			c-10.426,3.86-22.232-1.029-26.874-11.132c-5.606-12.199-16.374-20.698-29.541-23.316c-13.165-2.619-26.366,1.114-36.213,10.237
			c-8.156,7.56-20.934,7.56-29.09,0c-9.846-9.124-23.043-12.858-36.213-10.237c-13.167,2.619-23.935,11.117-29.541,23.316
			c-4.642,10.103-16.443,14.995-26.875,11.132c-12.589-4.662-26.211-3.059-37.375,4.4c-11.162,7.458-17.858,19.431-18.369,32.847
			c-0.422,11.11-9.457,20.146-20.568,20.568c-13.416,0.511-25.388,7.207-32.847,18.369c-7.458,11.163-9.062,24.786-4.4,37.376
			c3.861,10.427-1.028,22.232-11.132,26.874c-12.199,5.606-20.698,16.374-23.317,29.541c-2.619,13.167,1.113,26.366,10.237,36.213
			c7.559,8.155,7.559,20.935,0,29.09C1.931,280.391-1.8,293.59,0.819,306.757c2.619,13.167,11.117,23.935,23.316,29.541
			c10.103,4.643,14.993,16.448,11.132,26.875c-4.662,12.589-3.059,26.211,4.4,37.375c7.459,11.162,19.431,17.858,32.847,18.369
			c11.11,0.422,20.146,9.457,20.568,20.568c0.511,13.416,7.207,25.388,18.369,32.847c11.163,7.459,24.785,9.062,37.376,4.4
			c10.426-3.86,22.231,1.029,26.874,11.132c5.606,12.199,16.374,20.698,29.541,23.317c2.759,0.549,5.519,0.818,8.248,0.818
			c10.301,0,20.181-3.844,27.964-11.056c8.156-7.56,20.934-7.56,29.09,0c9.845,9.124,23.04,12.856,36.213,10.237
			c13.167-2.619,23.935-11.117,29.541-23.316c4.643-10.103,16.445-14.992,26.875-11.132c12.589,4.662,26.211,3.059,37.375-4.4
			c11.162-7.459,17.858-19.431,18.369-32.847c0.422-11.11,9.457-20.146,20.568-20.568c13.416-0.511,25.388-7.207,32.847-18.369
			c7.459-11.163,9.062-24.786,4.4-37.376c-3.861-10.427,1.028-22.232,11.132-26.874c12.199-5.606,20.698-16.374,23.317-29.541
			c2.619-13.167-1.113-26.366-10.237-36.213C493.385,262.389,493.385,249.611,500.942,241.455z M486.273,284.138
			c4.717,5.09,6.646,11.912,5.292,18.719c-1.354,6.807-5.747,12.372-12.053,15.27c-19.546,8.982-29.005,31.82-21.536,51.993
			c2.41,6.508,1.582,13.549-2.273,19.319c-3.856,5.771-10.044,9.23-16.978,9.494c-21.497,0.818-38.975,18.297-39.793,39.793
			c-0.264,6.935-3.725,13.122-9.494,16.978c-5.77,3.856-12.814,4.685-19.32,2.274c-20.171-7.469-43.009,1.99-51.992,21.536
			c-2.897,6.307-8.463,10.699-15.27,12.053c-6.804,1.356-13.628-0.574-18.719-5.292c-15.778-14.622-40.497-14.622-56.275,0
			c-5.091,4.718-11.913,6.647-18.719,5.292c-6.807-1.354-12.372-5.747-15.27-12.053c-6.904-15.022-21.99-24.086-37.764-24.086
			c-4.749,0-9.562,0.822-14.229,2.551c-6.509,2.411-13.548,1.582-19.319-2.273c-5.771-3.856-9.23-10.044-9.494-16.978
			c-0.818-21.497-18.297-38.975-39.793-39.793c-6.935-0.264-13.122-3.725-16.978-9.494c-3.856-5.771-4.685-12.812-2.274-19.32
			c7.469-20.173-1.99-43.009-21.536-51.992c-6.307-2.897-10.699-8.463-12.053-15.27c-1.354-6.807,0.575-13.629,5.292-18.719
			c14.621-15.778,14.621-40.497,0-56.275c-4.717-5.09-6.646-11.912-5.292-18.719c1.354-6.807,5.747-12.372,12.053-15.27
			c19.546-8.982,29.005-31.82,21.536-51.993c-2.41-6.508-1.582-13.549,2.273-19.319c3.856-5.771,10.044-9.23,16.978-9.494
			c21.497-0.818,38.976-18.297,39.793-39.793c0.264-6.935,3.725-13.122,9.494-16.978c5.771-3.856,12.813-4.687,19.32-2.274
			c20.17,7.466,43.009-1.991,51.992-21.536c2.897-6.307,8.463-10.699,15.27-12.053c6.808-1.354,13.629,0.575,18.719,5.292
			c15.778,14.622,40.497,14.622,56.275,0c5.091-4.718,11.912-6.648,18.719-5.292c6.807,1.354,12.372,5.747,15.27,12.053
			c8.981,19.545,31.821,29.005,51.993,21.536c6.51-2.41,13.55-1.58,19.319,2.273c5.771,3.856,9.23,10.044,9.494,16.978
			c0.818,21.497,18.297,38.975,39.793,39.793c6.935,0.264,13.122,3.725,16.978,9.494c3.856,5.771,4.685,12.812,2.274,19.32
			c-7.47,20.173,1.99,43.009,21.536,51.992c6.307,2.897,10.699,8.463,12.053,15.27c1.354,6.807-0.575,13.629-5.292,18.719
			C471.652,243.64,471.652,268.359,486.273,284.138z"/>
	</g>
</g>
<g>
	<g>
		<path d="M470.294,289.397l-14.845-3.02c1.503-9.909,2.286-20.052,2.286-30.374c0-10.02-0.746-19.869-2.163-29.501l14.867-2.958
			c5.417-1.077,8.934-6.342,7.855-11.758c-1.079-5.419-6.344-8.936-11.76-7.859l-14.861,2.956
			c-4.804-19.131-12.348-37.184-22.188-53.721l12.693-8.401c4.605-3.048,5.867-9.252,2.819-13.857
			c-3.048-4.604-9.25-5.864-13.857-2.819l-12.716,8.416c-11.9-16.133-26.137-30.439-42.216-42.408l8.468-12.675
			c3.068-4.593,1.833-10.802-2.759-13.869c-4.59-3.066-10.8-1.833-13.869,2.759l-8.455,12.654
			c-16.497-9.913-34.517-17.54-53.623-22.428l3.02-14.841c1.102-5.411-2.394-10.69-7.805-11.791
			c-5.411-1.108-10.69,2.394-11.791,7.805l-3.02,14.845c-9.909-1.503-20.052-2.286-30.374-2.286c-10.02,0-19.869,0.746-29.501,2.163
			l-2.958-14.867c-1.077-5.416-6.342-8.932-11.758-7.856c-5.417,1.077-8.934,6.342-7.855,11.758l2.956,14.861
			c-19.131,4.804-37.184,12.348-53.721,22.188l-8.401-12.693c-3.049-4.605-9.251-5.865-13.857-2.819
			c-4.605,3.048-5.867,9.252-2.819,13.857l8.416,12.716c-16.133,11.9-30.439,26.137-42.408,42.216l-12.675-8.468
			c-4.591-3.067-10.8-1.833-13.869,2.759c-3.068,4.593-1.833,10.802,2.759,13.869l12.654,8.455
			c-9.913,16.497-17.54,34.517-22.428,53.623l-14.841-3.02c-5.412-1.107-10.69,2.394-11.791,7.805
			c-1.102,5.412,2.394,10.69,7.806,11.791l14.845,3.02c-1.503,9.909-2.286,20.052-2.286,30.374c0,10.02,0.746,19.869,2.163,29.501
			l-14.867,2.958c-5.417,1.077-8.934,6.342-7.855,11.758c0.946,4.758,5.123,8.05,9.796,8.05c0.646,0,1.304-0.063,1.962-0.194
			l14.861-2.956c4.804,19.131,12.348,37.184,22.188,53.721l-12.693,8.401c-4.605,3.048-5.867,9.252-2.819,13.857
			c1.924,2.906,5.105,4.481,8.347,4.481c1.896,0,3.812-0.538,5.511-1.662l12.716-8.416c11.9,16.133,26.137,30.439,42.216,42.408
			l-8.468,12.675c-3.068,4.593-1.833,10.802,2.759,13.869c1.707,1.141,3.637,1.687,5.547,1.687c3.228,0,6.396-1.561,8.322-4.445
			l8.455-12.654c16.497,9.913,34.517,17.54,53.623,22.428l-3.02,14.841c-1.102,5.411,2.394,10.69,7.805,11.791
			c0.673,0.138,1.343,0.203,2.004,0.203c4.655,0,8.823-3.27,9.787-8.008l3.02-14.845c9.909,1.503,20.052,2.286,30.374,2.286
			c10.02,0,19.869-0.746,29.501-2.163l2.958,14.867c0.946,4.758,5.123,8.05,9.796,8.05c0.646,0,1.304-0.063,1.962-0.194
			c5.417-1.077,8.934-6.342,7.855-11.758l-2.956-14.861c19.131-4.804,37.184-12.348,53.721-22.188l8.401,12.693
			c1.924,2.906,5.105,4.481,8.347,4.481c1.896,0,3.812-0.538,5.511-1.662c4.605-3.048,5.867-9.252,2.819-13.857l-8.416-12.716
			c16.133-11.9,30.439-26.137,42.408-42.216l12.675,8.469c1.707,1.141,3.637,1.687,5.547,1.687c3.228,0,6.396-1.561,8.322-4.445
			c3.068-4.593,1.833-10.802-2.759-13.869l-12.654-8.455c9.913-16.497,17.54-34.517,22.428-53.623l14.841,3.02
			c0.673,0.138,1.343,0.203,2.004,0.203c4.655,0,8.823-3.27,9.787-8.008C479.202,295.777,475.706,290.498,470.294,289.397z
			 M196.892,427.858C125.614,403.276,74.265,335.525,74.265,256c0-100.209,81.526-181.734,181.734-181.734
			c16.181,0,31.87,2.137,46.811,6.124L126.104,257.096c-3.905,3.905-3.905,10.236,0,14.142c1.953,1.952,4.512,2.929,7.071,2.929
			s5.118-0.977,7.071-2.929l28.543-28.543c0.496,1.016,1.147,1.965,1.985,2.781l35.666,34.747l-8.404,49.08
			c-0.643,3.752,0.9,7.543,3.98,9.778c1.742,1.265,3.805,1.908,5.877,1.908c1.593,0,3.191-0.38,4.654-1.149l44.068-23.183
			l33.749,17.731L196.892,427.858z M286.17,278.401l5.891,34.288l-30.798-16.181c-2.913-1.529-6.394-1.527-9.306,0.002
			l-30.79,16.198l5.872-34.292c0.556-3.244-0.521-6.554-2.878-8.85l-24.919-24.276l34.428-5.013
			c3.257-0.474,6.072-2.521,7.527-5.473l15.388-31.201l15.406,31.193c1.457,2.951,4.273,4.996,7.529,5.469l34.43,4.994
			l-24.905,24.289C286.688,271.846,285.613,275.157,286.17,278.401z M255.999,437.735c-12.648,0-24.998-1.303-36.925-3.774
			l164.624-164.624c3.905-3.905,3.905-10.236,0-14.142c-3.906-3.904-10.235-3.904-14.142,0l-57.247,57.247l-5.54-32.247
			l35.647-34.766c2.726-2.657,3.705-6.632,2.528-10.251c-1.177-3.62-4.308-6.258-8.073-6.804l-49.278-7.147l-22.051-44.646
			c-1.685-3.413-5.16-5.572-8.965-5.572c-0.001,0-0.002,0-0.003,0c-3.807,0.001-7.281,2.163-8.965,5.577l-22.025,44.657
			l-41.369,6.024l139.79-139.789c66.614,26.979,113.729,92.347,113.729,168.521C437.733,356.209,356.208,437.735,255.999,437.735z"
			/>
	</g>
</g>
<g>
	<g>
		<path d="M113.418,283.928c-1.87-1.861-4.44-2.93-7.08-2.93c-2.63,0-5.21,1.069-7.07,2.93c-1.86,1.861-2.92,4.44-2.92,7.07
			c0,2.64,1.06,5.21,2.92,7.069c1.87,1.86,4.44,2.931,7.07,2.931c2.64,0,5.21-1.07,7.08-2.931c1.859-1.859,2.93-4.439,2.93-7.069
			S115.278,285.788,113.418,283.928z"/>
	</g>
</g>
<g>
	<g>
		<path d="M414.178,224.712c-1.859-1.86-4.439-2.93-7.069-2.93c-2.641,0-5.21,1.069-7.07,2.93c-1.86,1.859-2.93,4.439-2.93,7.07
			c0,2.64,1.069,5.21,2.93,7.079c1.86,1.86,4.441,2.931,7.07,2.931c2.63,0,5.21-1.07,7.069-2.931
			c1.86-1.869,2.931-4.449,2.931-7.079C417.109,229.151,416.039,226.571,414.178,224.712z"/>
	</g>
</g>
<g>
</g>
<g>
</g>
<g>
</g>
<g>
</g>
<g>
</g>
<g>
</g>
<g>
</g>
<g>
</g>
<g>
</g>
<g>
</g>
<g>
</g>
<g>
</g>
<g>
</g>
<g>
</g>
<g>
</g>
</svg>
