<svg id="Capa_1"  viewBox="0 0 512 512" xmlns="http://www.w3.org/2000/svg"><g><path d="m488.082 30h7.918v-30h-7.918c-30.816 0-60.545 11.627-83.176 32.21-4.382-1.428-9.053-2.21-13.906-2.21-19.555 0-36.228 12.541-42.42 30h-47.58c-41.355 0-75 33.645-75 75v212c0 19.555-12.541 36.228-30 42.42v-24.717l-180-36v156.594l180-36v-28.806c34.192-6.968 60-37.271 60-73.491v-45h30v210h210v-317c0-44.142-27.382-82.004-66.051-97.506 1.375-2.371 2.542-4.876 3.47-7.494h62.581v-30h-62.58c-1.127-3.178-2.604-6.191-4.38-8.997 16.573-13.467 37.455-21.003 59.042-21.003zm-322.082 394.703-120 24v-83.406l120 24zm90-152.703v-137c0-24.813 20.187-45 45-45h47.58c.929 2.618 2.095 5.123 3.47 7.494-38.668 15.502-66.05 53.364-66.05 97.506v77zm60-32h150v182h-150zm0 242v-30h150v30zm150-287v15h-150v-15c0-41.355 33.645-75 75-75s75 33.645 75 75zm-90-120c0-8.271 6.729-15 15-15s15 6.729 15 15-6.729 15-15 15-15-6.729-15-15z"/></g></svg>