<svg id="Capa_1" viewBox="0 0 512 512" xmlns="http://www.w3.org/2000/svg"><g><path d="m511.989 123.136c-.082-1.836-.833-3.619-2.186-4.972l-82.832-82.834c-1.402-1.401-3.265-2.147-5.169-2.182-.046-.004-40.135-.015-40.135-.015-4.143 0-7.5 3.358-7.5 7.5s3.357 7.5 7.5 7.5h32.5v58.767c0 13.271 10.796 24.067 24.066 24.067h58.767v323.833c0 4.999-4.067 9.067-9.066 9.067h-126.568l-95.938-415.734h86.239c4.143 0 7.5-3.358 7.5-7.5s-3.357-7.5-7.5-7.5h-237.267v-9.633c0-12.958-10.542-23.5-23.5-23.5h-34.267c-12.958 0-23.5 10.542-23.5 23.5v9.633h-9.066c-13.271 0-24.067 10.797-24.067 24.067v85.967c0 4.142 3.358 7.5 7.5 7.5s7.5-3.358 7.5-7.5v-85.967c0-5 4.067-9.067 9.067-9.067h100.183v25.633c0 4.142 3.358 7.5 7.5 7.5s7.5-3.358 7.5-7.5v-25.633h44.517l95.939 415.733h-140.456v-25.633c0-4.142-3.358-7.5-7.5-7.5s-7.5 3.358-7.5 7.5v25.633h-100.183c-5 0-9.067-4.067-9.067-9.067v-281.632c0-4.142-3.358-7.5-7.5-7.5s-7.5 3.358-7.5 7.5v281.633c0 13.271 10.796 24.067 24.067 24.067h9.066v9.633c0 12.958 10.542 23.5 23.5 23.5h34.267c12.958 0 23.5-10.542 23.5-23.5v-9.633h373.534c13.271 0 24.066-10.796 24.066-24.067v-331.333c0-.122-.004-.23-.011-.331zm-463.856-90.003v-9.633c0-4.687 3.813-8.5 8.5-8.5h34.267c4.687 0 8.5 3.813 8.5 8.5v9.633zm51.267 455.367c0 4.687-3.813 8.5-8.5 8.5h-34.267c-4.687 0-8.5-3.813-8.5-8.5v-9.633h51.267zm195.701-24.633-95.94-415.733h50.873l95.939 415.733zm143.132-347.9c-4.999 0-9.066-4.067-9.066-9.067v-48.16l57.227 57.227z"/><path d="m131.75 147.533c4.142 0 7.5-3.358 7.5-7.5v-33.133c0-4.142-3.358-7.5-7.5-7.5s-7.5 3.358-7.5 7.5v33.133c0 4.142 3.358 7.5 7.5 7.5z"/><path d="m124.25 206.3c0 4.142 3.358 7.5 7.5 7.5s7.5-3.358 7.5-7.5v-33.133c0-4.142-3.358-7.5-7.5-7.5s-7.5 3.358-7.5 7.5z"/><path d="m124.25 338.833c0 4.142 3.358 7.5 7.5 7.5s7.5-3.358 7.5-7.5v-33.133c0-4.142-3.358-7.5-7.5-7.5s-7.5 3.358-7.5 7.5z"/><path d="m124.25 272.567c0 4.142 3.358 7.5 7.5 7.5s7.5-3.358 7.5-7.5v-33.134c0-4.142-3.358-7.5-7.5-7.5s-7.5 3.358-7.5 7.5z"/><path d="m124.25 405.1c0 4.142 3.358 7.5 7.5 7.5s7.5-3.358 7.5-7.5v-33.133c0-4.142-3.358-7.5-7.5-7.5s-7.5 3.358-7.5 7.5z"/></g></svg>