<?xml version="1.0" encoding="iso-8859-1"?>
<!-- Generator: Adobe Illustrator 19.0.0, SVG Export Plug-In . SVG Version: 6.00 Build 0)  -->
<svg version="1.1" id="Capa_1" xmlns="http://www.w3.org/2000/svg" xmlns:xlink="http://www.w3.org/1999/xlink" x="0px" y="0px"
	 viewBox="0 0 512 512" xml:space="preserve">
<g>
	<g>
		<path d="M496,287.995h-96H16c-8.832,0-16,7.168-16,16v64c0,44.128,35.872,80,80,80h256c38.656,0,70.944-27.52,78.368-64H496
			c8.832,0,16-7.168,16-16v-64C512,295.163,504.832,287.995,496,287.995z M384,367.995c0,26.464-21.536,48-48,48H80
			c-26.464,0-48-21.536-48-48v-48h352V367.995z M480,351.995h-64v-32h64V351.995z"/>
	</g>
</g>
<g>
	<g>
		<path d="M333.952,152.155c-10.624-18.912-3.968-27.392-2.912-28.576c6.208-5.888,6.688-15.744,0.928-22.208
			c-5.888-6.624-16.064-7.2-22.592-1.344c-1.12,0.992-27.36,25.056-3.328,67.808c10.848,19.296,3.712,27.712,3.328,28.192
			c-6.592,5.888-7.232,16-1.344,22.592c3.168,3.552,7.552,5.376,11.968,5.376c3.776,0,7.584-1.344,10.624-4.032
			C331.744,218.971,357.984,194.907,333.952,152.155z"/>
	</g>
</g>
<g>
	<g>
		<path d="M221.952,120.155c-10.624-18.912-3.968-27.424-2.912-28.576c6.208-5.888,6.688-15.744,0.928-22.208
			c-5.888-6.624-16.032-7.168-22.592-1.344c-1.12,0.992-27.36,25.056-3.328,67.808c10.848,19.296,3.712,27.712,3.328,28.192
			c-6.592,5.888-7.232,16-1.344,22.592c3.168,3.552,7.552,5.376,11.968,5.376c3.776,0,7.584-1.344,10.624-4.032
			C219.744,186.971,245.984,162.907,221.952,120.155z"/>
	</g>
</g>
<g>
	<g>
		<path d="M109.952,152.155c-10.624-18.912-3.968-27.424-2.912-28.576c6.208-5.888,6.688-15.744,0.928-22.208
			c-5.92-6.624-16.064-7.2-22.592-1.344c-1.12,0.992-27.36,25.056-3.328,67.808c10.848,19.296,3.712,27.712,3.328,28.192
			c-6.592,5.888-7.232,16-1.344,22.592c3.168,3.552,7.552,5.376,11.968,5.376c3.776,0,7.584-1.344,10.624-4.032
			C107.744,218.971,133.984,194.907,109.952,152.155z"/>
	</g>
</g>
<g>
</g>
<g>
</g>
<g>
</g>
<g>
</g>
<g>
</g>
<g>
</g>
<g>
</g>
<g>
</g>
<g>
</g>
<g>
</g>
<g>
</g>
<g>
</g>
<g>
</g>
<g>
</g>
<g>
</g>
</svg>
