<svg viewBox="-76 0 512 512" xmlns="http://www.w3.org/2000/svg"><path d="m283.382812 88.558594v-58.558594h2.734376c8.285156 0 15-6.714844 15-15s-6.714844-15-15-15h-212.175782c-8.28125 0-15 6.714844-15 15s6.71875 15 15 15h2.738282v58.558594c-43.058594 4.6875-76.679688 41.253906-76.679688 85.535156v191.296875c0 37.980469 24.738281 70.269531 58.941406 81.65625v49.953125c0 8.285156 6.714844 15 15 15h212.175782c8.285156 0 15-6.714844 15-15v-49.953125c34.203124-11.386719 58.945312-43.675781 58.945312-81.65625v-191.296875c0-44.285156-33.625-80.847656-76.679688-85.535156zm-176.703124-58.558594h146.703124v58.035156h-58.351562v-10.65625c8.253906-.035156 14.9375-6.734375 14.9375-14.996094 0-8.285156-6.714844-15-15-15h-29.875c-8.285156 0-15 6.714844-15 15 0 8.261719 6.683594 14.960938 14.9375 14.996094v10.65625h-58.351562zm164.4375 452h-182.175782v-30.554688h182.179688v30.554688zm58.945312-116.609375c0 30.910156-25.148438 56.058594-56.058594 56.058594h-187.945312c-30.910156 0-56.058594-25.148438-56.058594-56.058594v-191.296875c0-30.910156 25.144531-56.058594 56.058594-56.058594h187.945312c30.910156 0 56.058594 25.148438 56.058594 56.058594zm0 0"/><path d="m192.125 189.894531c-2.824219-3.855469-7.316406-6.128906-12.09375-6.128906s-9.269531 2.273437-12.097656 6.128906l-52.859375 72.0625c-13.300781 18.132813-18.464844 41.160157-14.167969 63.171875 4.316406 22.117188 17.851562 41.621094 37.140625 53.511719 12.945313 7.984375 27.464844 11.976563 41.984375 11.976563s29.035156-3.988282 41.984375-11.976563c19.285156-11.890625 32.824219-31.394531 37.136719-53.507813 4.296875-22.015624-.867188-45.039062-14.167969-63.175781zm10.574219 151.839844c-1.257813 6.457031-5.070313 11.9375-10.734375 15.425781-7.359375 4.542969-16.507813 4.539063-23.867188 0-5.664062-3.488281-9.476562-8.96875-10.738281-15.429687-1.246094-6.394531.199219-12.828125 4.074219-18.113281l18.597656-25.351563 18.597656 25.351563c3.875 5.285156 5.320313 11.71875 4.070313 18.117187zm27.09375-22.84375c-1.699219-4.601563-4.027344-8.996094-6.976563-13.015625l-30.691406-41.84375c-2.824219-3.851562-7.316406-6.128906-12.09375-6.128906s-9.269531 2.277344-12.09375 6.128906l-30.691406 41.84375c-2.949219 4.019531-5.277344 8.414062-6.976563 13.015625-2.570312-13.859375.613281-27.757813 8.996094-39.1875l40.765625-55.578125 40.765625 55.574219c8.382813 11.433593 11.5625 25.332031 8.996094 39.191406zm0 0"/></svg>