<svg id="Out_line" viewBox="0 0 512 512" xmlns="http://www.w3.org/2000/svg" data-name="Out line"><path d="m336 304h-8.45508a72.1742 72.1742 0 0 0 -47.54492-59.8717v-12.1283a24 24 0 0 0 -48 0v12.1283a72.1742 72.1742 0 0 0 -47.54492 59.8717h-8.45508a8.00008 8.00008 0 0 0 -8 8 40.04552 40.04552 0 0 0 40 40h96a40.04552 40.04552 0 0 0 40-40 8.00008 8.00008 0 0 0 -8-8zm-88-72a8 8 0 1 1 16 0v8.45514a70.53561 70.53561 0 0 0 -16 0zm8 24a56.07923 56.07923 0 0 1 55.41943 48h-110.83886a56.07923 56.07923 0 0 1 55.41943-48zm48 80h-96a24.04166 24.04166 0 0 1 -22.62891-16h141.25782a24.04166 24.04166 0 0 1 -22.62891 16z"/><path d="m248 168h16v32h-16z"/><path d="m180.117 196.118h16v32h-16z" transform="matrix(.707 -.707 .707 .707 -94.892 195.15)"/><path d="m307.882 204.118h32v16h-32z" transform="matrix(.707 -.707 .707 .707 -55.124 291.164)"/><path d="m456 80h-88v-8a8.00008 8.00008 0 0 0 -8-8h-208a8.00008 8.00008 0 0 0 -8 8v8h-88a40.04552 40.04552 0 0 0 -40 40v272a40.04552 40.04552 0 0 0 40 40h88v8a8.00008 8.00008 0 0 0 8 8h208a8.00008 8.00008 0 0 0 8-8v-8h88a40.04552 40.04552 0 0 0 40-40v-272a40.04552 40.04552 0 0 0 -40-40zm-400 336a24.0275 24.0275 0 0 1 -24-24v-272a24.0275 24.0275 0 0 1 24-24h88v16h-88a8.00008 8.00008 0 0 0 -8 8v272a8.00008 8.00008 0 0 0 8 8h88v16zm88-288v256h-80v-256zm208 304h-192v-352h192zm16-304h80v256h-80zm112 264a24.0275 24.0275 0 0 1 -24 24h-88v-16h88a8.00008 8.00008 0 0 0 8-8v-272a8.00008 8.00008 0 0 0 -8-8h-88v-16h88a24.0275 24.0275 0 0 1 24 24z"/></svg>