<?xml version="1.0" encoding="iso-8859-1"?>
<!-- Generator: Adobe Illustrator 19.0.0, SVG Export Plug-In . SVG Version: 6.00 Build 0)  -->
<svg version="1.1" id="Layer_1" xmlns="http://www.w3.org/2000/svg" xmlns:xlink="http://www.w3.org/1999/xlink" x="0px" y="0px"
	 viewBox="0 0 512.001 512.001"  xml:space="preserve">
<g>
	<g>
		<path d="M189.907,431.931l-0.106-0.107c-3.897-3.915-10.228-3.928-14.142-0.033c-3.914,3.896-3.928,10.228-0.032,14.142
			l0.106,0.107c1.954,1.963,4.52,2.945,7.087,2.945c2.551,0,5.103-0.97,7.055-2.912
			C193.789,442.177,193.803,435.845,189.907,431.931z"/>
	</g>
</g>
<g>
	<g>
		<path d="M509.072,29.385L482.615,2.929c-3.308-3.306-8.463-3.879-12.414-1.382l-66.75,42.192
			c-0.816,0.516-1.532,1.151-2.156,1.861L288.558,56.379c0,0.001,0,0.001,0,0.002c-2.303,0.22-4.469,1.232-6.119,2.882
			L2.929,338.773c-3.905,3.905-3.905,10.237,0,14.142l156.156,156.157c1.876,1.875,4.419,2.929,7.071,2.929s5.195-1.054,7.071-2.929
			l279.51-279.51c1.71-1.71,2.671-3.886,2.884-6.12l10.78-112.737c0.709-0.624,1.344-1.339,1.86-2.155l42.192-66.75
			C512.951,37.847,512.377,32.691,509.072,29.385z M166.156,487.858L24.143,345.843l25.696-25.696l106.508,106.507
			c1.953,1.953,4.512,2.929,7.071,2.929c2.559,0,5.118-0.976,7.071-2.929c3.905-3.905,3.905-10.237,0-14.143L63.981,306.005
			L289.51,80.476l136.117,136.118l5.897,5.897L166.156,487.858z M437.732,200.413L311.587,74.269l95.965-9.176L427.23,84.77
			l19.678,19.678L437.732,200.413z M458.037,87.293l-33.329-33.329l49.419-31.238l15.147,15.147L458.037,87.293z"/>
	</g>
</g>
<g>
	<g>
		<path d="M302.56,182.684l-24.848-24.848c-3.329-3.327-8.527-3.884-12.484-1.337c-3.957,2.547-5.602,7.51-3.951,11.917
			c3.144,8.39,0.45,25.014-7.611,33.075l-46.248,46.248c-11.394,11.394-17.669,26.543-17.669,42.656
			c0,16.114,6.275,31.262,17.669,42.656l23.991,23.992c1.932,1.933,4.494,2.929,7.074,2.929c1.923,0,3.858-0.553,5.551-1.686
			c3.967-2.651,5.51-7.733,3.685-12.141c-3.587-8.664,0.485-23.893,8.544-31.951l46.297-46.297
			C326.053,244.404,326.053,206.178,302.56,182.684z M288.417,253.756l-46.297,46.297c-6.815,6.815-11.65,15.944-14.026,25.391
			l-6.534-6.535c-7.618-7.617-11.812-17.743-11.812-28.514s4.195-20.897,11.812-28.513l46.248-46.249
			c6.494-6.494,11.132-16.07,13.321-26.095l7.288,7.289C304.112,212.522,304.112,238.06,288.417,253.756z"/>
	</g>
</g>
<g>
</g>
<g>
</g>
<g>
</g>
<g>
</g>
<g>
</g>
<g>
</g>
<g>
</g>
<g>
</g>
<g>
</g>
<g>
</g>
<g>
</g>
<g>
</g>
<g>
</g>
<g>
</g>
<g>
</g>
</svg>
