<svg id="Capa_1"  viewBox="0 0 511.999 511.999"  xmlns="http://www.w3.org/2000/svg"><g><path d="m90.999 217.261v263.738c0 8.284 6.716 15 15 15h300c8.284 0 15-6.716 15-15v-261.923l84.257-55.554c7.23-4.768 8.94-14.671 3.695-21.586l-91-120c-2.905-3.829-7.434-5.937-11.952-5.937-30.479 0-268.948 0-300 0-3.754 0-7.678 1.499-10.548 4.335l-91 90c-5.925 5.86-5.943 15.453 0 21.33zm330-34.119v-107.538l54.367 71.692zm-148.111-70.245-16.889 16.889-16.889-16.889-22.3-66.898h78.377zm53.922-66.898h4.188v60h-24.188zm-141.623 0 20 60h-24.188v-60zm-64.188 0h30v75c0 8.284 6.716 15 15 15h53.787l21.213 21.213v53.787c0 8.284 6.716 15 15 15s15-6.716 15-15v-53.787l21.213-21.213h53.787c8.284 0 15-6.716 15-15v-75h30v420h-270zm-30 20.933v108.136l-54.669-54.069z"/></g></svg>