<?xml version="1.0" encoding="iso-8859-1"?>
<!-- Generator: Adobe Illustrator 19.0.0, SVG Export Plug-In . SVG Version: 6.00 Build 0)  -->
<svg version="1.1" id="Capa_1" xmlns="http://www.w3.org/2000/svg" xmlns:xlink="http://www.w3.org/1999/xlink" x="0px" y="0px"
	 viewBox="0 0 512 512" style="enable-background:new 0 0 512 512;" xml:space="preserve">
<g>
	<g>
		<path d="M500.341,238.264c-5.27-4.716-11.812-7.674-18.705-8.599c-2.826-27.23-10.01-52.417-20.936-72.709
			c-15.961-29.643-38.232-45.969-62.71-45.969c-8.64,0-17.002,2.043-24.912,5.979l-58.612,13.737l-62.356-10.223l-45.642,19.422
			l-81.928-28.916H66.966v15.001c0,20.404-16.599,37.003-37.003,37.003h-10.28l-3.71,9.586c-21.291,55-21.298,111.113-0.023,166.783
			l3.686,9.647h10.327c20.404,0,37.003,16.599,37.003,37.003v15.001h78.33l58.281-18.502l26.667,18.096l75.081-9.518l71.943,5.833
			c6.654,2.695,13.594,4.09,20.723,4.09c29.922,0,56.786-25.297,72.034-66.91l3.106,0.345c1.287,0.143,2.573,0.214,3.854,0.214
			c8.567-0.001,16.91-3.152,23.355-8.921c7.41-6.632,11.659-16.138,11.659-26.082v-35.312
			C512,254.402,507.751,244.896,500.341,238.264z M40.818,319.883c-14.587-43.154-14.599-85.124-0.041-127.761
			c8.153-1.328,15.811-4.14,22.701-8.138c-11.241,47.947-11.241,96.082,0.001,144.032C56.601,324.026,48.956,321.216,40.818,319.883
			z M304.643,360.931l-66.93,8.484l-29.337-19.907l-67.728,21.501h-31.801c-15.851-38.3-23.879-76.944-23.879-115.013
			c0-38.067,8.028-76.709,23.878-115.005H119.4l88.084,31.088l48.365-20.581l59.653,9.779l19.98-4.682
			c-0.066,0.122-0.134,0.24-0.2,0.362c-14.378,26.703-22.297,61.877-22.297,99.043s7.919,72.34,22.297,99.043
			c1.657,3.078,3.387,6.004,5.176,8.793L304.643,360.931z M397.992,371.008c-12.734,0-25.962-11.004-36.294-30.19
			c-12.066-22.408-18.71-52.531-18.71-84.819c0-67.776,28.988-115.009,55.004-115.009c12.734,0,25.962,11.004,36.294,30.19
			c9.005,16.722,14.986,37.745,17.443,60.755l-45.005,5c-2.064-1.887-4.339-2.938-6.732-2.938c-9.39,0-17.001,16.119-17.001,36.003
			v24.002c0,19.883,7.612,36.003,17.001,36.003c2.391,0,4.666-1.051,6.732-2.938l32.433,3.603
			C428.573,355.661,413.307,371.008,397.992,371.008z M481.998,299.658c0,1.945-1.043,3.169-1.666,3.726
			c-0.622,0.558-1.954,1.462-3.887,1.244l-59.56-6.618c0.069-1.316,0.107-2.652,0.107-4.007v-24.002
			c0-1.355-0.039-2.691-0.107-4.007l59.561-6.617c1.928-0.216,3.264,0.687,3.886,1.244c0.622,0.557,1.666,1.78,1.666,3.726V299.658z
			"/>
	</g>
</g>
<g>
</g>
<g>
</g>
<g>
</g>
<g>
</g>
<g>
</g>
<g>
</g>
<g>
</g>
<g>
</g>
<g>
</g>
<g>
</g>
<g>
</g>
<g>
</g>
<g>
</g>
<g>
</g>
<g>
</g>
</svg>
