<?xml version="1.0" encoding="iso-8859-1"?>
<!-- Generator: Adobe Illustrator 19.0.0, SVG Export Plug-In . SVG Version: 6.00 Build 0)  -->
<svg version="1.1" id="Capa_1" xmlns="http://www.w3.org/2000/svg" xmlns:xlink="http://www.w3.org/1999/xlink" x="0px" y="0px"
	 viewBox="0 0 512 512" style="enable-background:new 0 0 512 512;" xml:space="preserve">
<g>
	<g>
		<g>
			<path d="M384,74.08V0H128v74.08l-96,112V512h448V186.08L384,74.08z M429.216,176H306.784L368,104.576L429.216,176z M160,32h192
				v32H160V32z M256,208v272H64V197.92L151.36,96h181.856l-68.576,80H224v32H256z M288,208h64v185.376l-64,64V208z M310.624,480
				L368,422.624L425.376,480H310.624z M448,457.376l-64-64V208h64V457.376z"/>
			<path d="M160,248l-11.904,13.264C139.392,271.008,96,320.944,96,352c0,35.346,28.654,64,64,64c35.346,0,64-28.654,64-64
				c0-31.056-43.392-80.992-52.096-90.688L160,248z M160,384c-17.673,0-32-14.327-32-32c0-10.208,15.024-34.016,32-55.216
				c17.008,21.312,32,45.312,32,55.216C192,369.673,177.673,384,160,384z"/>
			<rect x="160" y="176" width="32" height="32"/>
			<rect x="96" y="176" width="32" height="32"/>
		</g>
	</g>
</g>
<g>
</g>
<g>
</g>
<g>
</g>
<g>
</g>
<g>
</g>
<g>
</g>
<g>
</g>
<g>
</g>
<g>
</g>
<g>
</g>
<g>
</g>
<g>
</g>
<g>
</g>
<g>
</g>
<g>
</g>
</svg>
