<svg viewBox="0 0 60 60" xmlns="http://www.w3.org/2000/svg"><g id="Page-1" ><g id="049---Ripped-Jumper" ><path id="Shape" d="m27.943 15.238c-.6501626-.3473664-1.4386944-.3089389-2.052.1l-3.963 2.641-2.034-1.017c-.6199641-.309797-1.3561233-.2765486-1.9456365.087874-.5895131.3644226-.94834 1.0080678-.9483635 1.701126v8.3c-.0007983.6432398.3078322 1.2476052.8293773 1.6241005s1.1923428.4791639 1.8026227.2758995l.79-.263.822 2.056c.287483.7353413.9849175 1.229128 1.774 1.256h.087c.7567396.005173 1.4501062-.4218725 1.786-1.1l.5-1 .5.335c.6138336.4090092 1.4029648.4469509 2.0532069.098719.650242-.3482319 1.0560264-1.0261012 1.0557931-1.763719v-11.57c-.0006387-.7372604-.4068347-1.4143819-1.057-1.762zm-.943 13.332-.5-.335c-.4774766-.3188099-1.068936-.4170489-1.6238376-.269713-.5549016.147336-1.0197253.5260364-1.2761624 1.039713l-.5 1-.824-2.059c-.393861-.9818713-1.4842473-1.487183-2.488-1.153l-.79.264v-8.3l2.034 1.018c.6411776.3183609 1.4034524.2707187 2-.125l3.968-2.65z"/><path id="Shape" d="m47.594 11.386c-.511696-1.39338813-1.6274391-2.47971142-3.034-2.954-2.144088-.7027405-4.3365691-1.24818703-6.56-1.632v-4.8c0-1.1045695-.8954305-2-2-2h-12c-1.1045695 0-2 .8954305-2 2v4.8c-2.2234309.38381297-4.415912.9292595-6.56 1.632-1.4065609.47428858-2.522304 1.56061187-3.034 2.954l-12.206 32.269c-.55179948 1.4398481.07777767 3.0635172 1.456 3.755l2.537 1.272c.41496456.2092585.87325847.3181804 1.338.318.33672403-.0005096.67099526-.0572917.989-.168.77014977-.2669526 1.39745622-.8375268 1.736-1.579l4.744-10.565v16.312c.0052514 1.2667854.8056491 2.3937454 2 2.816v1.184c0 1.6568542 1.3431458 3 3 3h24c1.6568542 0 3-1.3431458 3-3v-1.184c1.1943509-.4222546 1.9947486-1.5492146 2-2.816v-4c0-1.1045695-.8954305-2-2-2h-3.479l.406-1.22c.1974724-.5853035.1113528-1.2291679-.233-1.742l-.694-1.038h4c1.1045695 0 2-.8954305 2-2v-4.313l4.75 10.58c.3392438.7358859.9640726 1.3014824 1.73 1.566.3180047.1107083.652276.1674904.989.168.464822-.0001297.9231202-.1093951 1.338-.319l2.537-1.272c1.3787293-.6899914 2.0099957-2.312692 1.46-3.753zm-23.594-9.386h12v6h-12zm19 55c0 .5522847-.4477153 1-1 1h-24c-.5522847 0-1-.4477153-1-1v-1h26zm14.447-11.377-2.537 1.277c-.2386989.1178933-.5145546.1357385-.7664536.0495823s-.459045-.269201-.5755464-.5085823l-6.568-14.635v-7.806c0-.5522847-.4477153-1-1-1s-1 .4477153-1 1v17h-4c-.7374384.0001355-1.4149703.4060631-1.7629549 1.056234-.3479847.6501708-.3099547 1.4390817.0989549 2.052766l.691 1.038-.405 1.22c-.2036074.6102375-.1012478 1.2811622.2750631 1.8029245.3763109.5217622.9806287.8306594 1.6239369.8300755h3.479v4c0 .5522847-.4477153 1-1 1h-28c-.5522847 0-1-.4477153-1-1v-29c0-.5522847-.4477153-1-1-1s-1 .4477153-1 1v7.806l-6.562 14.617c-.11318352.244124-.31997536.4323323-.57364739.5220961-.25367203.0897637-.53281528.0735072-.77435261-.0450961l-2.537-1.277c-.46344557-.2306194-.67428258-.7768001-.486-1.259l12.21-32.271c.3036195-.8249391.9602121-1.4708942 1.79-1.761 1.9953081-.6551666 4.0348197-1.16713313 6.103-1.532.3176571.72784639 1.0358558 1.19879636 1.83 1.2h12c.7941442-.00120364 1.5123429-.47215361 1.83-1.2 2.0671421.36467885 4.1056459.87630989 6.1 1.531.8297879.2901058 1.4863805.9360609 1.79 1.761l12.214 32.274c.1869168.4818928-.0242064 1.0268247-.487 1.257z"/><path id="Shape" d="m21 43c0-.5522847-.4477153-1-1-1v-1c0-.5522847-.4477153-1-1-1s-1 .4477153-1 1v1c-.5522847 0-1 .4477153-1 1s.4477153 1 1 1v2c-.5522847 0-1 .4477153-1 1s.4477153 1 1 1v1c0 .5522847.4477153 1 1 1s1-.4477153 1-1v-1c.5522847 0 1-.4477153 1-1s-.4477153-1-1-1v-2c.5522847 0 1-.4477153 1-1z"/><path id="Shape" d="m41 22c0-.5522847-.4477153-1-1-1v-1c0-.5522847-.4477153-1-1-1s-1 .4477153-1 1v1c-.5522847 0-1 .4477153-1 1s.4477153 1 1 1v2c-.5522847 0-1 .4477153-1 1s.4477153 1 1 1v1c0 .5522847.4477153 1 1 1s1-.4477153 1-1v-1c.5522847 0 1-.4477153 1-1s-.4477153-1-1-1v-2c.5522847 0 1-.4477153 1-1z"/></g></g></svg>