<?xml version="1.0"?>
<svg xmlns="http://www.w3.org/2000/svg"  viewBox="0 0 128 128"><path d="M103.707,22.488l-7.172-3.3L85.773,13.325l0,0L78.212,9.207c-.025-.014-.054-.019-.079-.031a1.74,1.74,0,0,0-.758-.182H50.628a1.75,1.75,0,0,0-.837.213l-7.56,4.116h0L31.465,19.186l-7.172,3.3A41.866,41.866,0,0,0,0,60.413V95.069a1.749,1.749,0,0,0,1.75,1.75H18.063a1.749,1.749,0,0,0,1.75-1.75V58.289A13.167,13.167,0,0,1,27.206,46.4L30.5,44.781v59.466a5.758,5.758,0,0,0,4.125,5.512v7.5a1.749,1.749,0,0,0,1.75,1.75h55.25a1.749,1.749,0,0,0,1.75-1.75v-7.5a5.758,5.758,0,0,0,4.125-5.512V44.781l3.294,1.623a13.167,13.167,0,0,1,7.392,11.885v36.78a1.75,1.75,0,0,0,1.75,1.75H126.25a1.749,1.749,0,0,0,1.75-1.75V60.413A41.866,41.866,0,0,0,103.707,22.488ZM46.541,14.962l2.644-1.44a15.112,15.112,0,0,0,29.63,0l4.1,2.234a19.626,19.626,0,0,1-37.833,0Zm6.026-2.468H75.433a11.6,11.6,0,0,1-22.866,0ZM16.313,93.319H3.5v-5.51H16.313Zm21.812,22.187V110h51.75v5.509Zm64.216-72.242L96.523,40.4A1.749,1.749,0,0,0,94,41.967v62.28a2.253,2.253,0,0,1-2.25,2.25H36.25a2.253,2.253,0,0,1-2.25-2.25V41.967a1.749,1.749,0,0,0-1.75-1.75,1.737,1.737,0,0,0-.773.181l-5.818,2.866a16.645,16.645,0,0,0-9.346,15.025v26.02H3.5v-23.9A38.358,38.358,0,0,1,25.756,25.667l7.225-3.326c.037-.016.072-.034.106-.052l8.863-4.827a23.11,23.11,0,0,0,44.1,0l8.863,4.827a1.164,1.164,0,0,0,.106.053l7.225,3.326A38.358,38.358,0,0,1,124.5,60.413v23.9H111.686V58.289A16.646,16.646,0,0,0,102.341,43.264ZM124.5,93.319H111.686v-5.51H124.5Z"/></svg>
