<svg id="Layer_1"  viewBox="0 0 495.992 495.992" xmlns="http://www.w3.org/2000/svg"><path d="m413.494 420.452-20.909-33.355c-7.336-11.7-11.22-25.184-11.232-38.993l-.304-309.879c-.021-21.078-17.185-38.225-38.262-38.225h-189.52c-21.077 0-38.241 17.147-38.262 38.225l-.303 309.879c-.014 13.81-3.898 27.294-11.233 38.994l-20.912 33.359c-20.447 32.644 2.972 75.535 41.869 75.535 16.231 0 31.03-8.049 40-20.531l43.542-60.553c9.652-13.423 16.089-29.154 18.616-45.491l21.434-138.604 21.399 138.512c2.52 16.315 8.94 32.028 18.567 45.438 15.122 21.062 41.747 58.069 43.639 60.695 16.611 23.112 49.387 27.399 71.392 9.313.002-.001.003-.002.004-.003 19.1-15.707 23.604-43.355 10.475-64.316zm-44.058 43.399c-5.255-.686-9.147-3.343-12.204-7.593-3.303-4.59-27.853-38.708-43.252-60.157-6.707-9.343-11.181-20.291-12.937-31.661l-33.253-215.237c-1.518-9.818-9.83-16.945-19.765-16.946-9.883-.001-18.24 7.075-19.766 16.943l-33.298 215.327c-1.76 11.385-6.246 22.346-12.972 31.7l-43.545 60.556c-2.825 3.931-7.025 6.441-11.827 7.068-14.574 1.898-24.66-14.084-16.944-26.402l20.908-33.354c10.526-16.79 16.101-36.141 16.12-55.959l.303-309.879c.003-3.449 2.813-6.256 6.262-6.256h189.52c3.449 0 6.259 2.807 6.262 6.256l.304 309.878c.019 19.818 5.593 39.169 16.119 55.96l20.906 33.35c7.735 12.348-2.395 28.296-16.941 26.406z"/></svg>