<svg  viewBox="0 0 512 512" xmlns="http://www.w3.org/2000/svg"><g id="Outline"><path d="m496 104a8 8 0 0 0 -8-8h-464a8 8 0 0 0 -8 8v112a7.981 7.981 0 0 0 2.106 5.4l176 192a8 8 0 0 0 5.894 2.6h112a8 8 0 0 0 5.9-2.594l176-192a7.981 7.981 0 0 0 2.1-5.406zm-464 8h448v32h-432v16h432v49.013a201.9 201.9 0 0 0 -115.769 60.7l-42.4-96.92-14.658 6.414 45.443 103.869a201.129 201.129 0 0 0 -38.763 80.684l-8.239 36.24h-99.229l-8.236-36.241a201.125 201.125 0 0 0 -38.763-80.683l45.443-103.869-14.658-6.414-42.4 96.92a201.9 201.9 0 0 0 -115.771-60.7zm434.039 116.117-139.553 152.241 2.966-13.052a186.2 186.2 0 0 1 136.587-139.189zm-283.491 139.188 2.966 13.053-139.553-152.241a186.2 186.2 0 0 1 136.587 139.188z"/></g></svg>