<?xml version="1.0" encoding="iso-8859-1"?>
<!-- Generator: Adobe Illustrator 19.0.0, SVG Export Plug-In . SVG Version: 6.00 Build 0)  -->
<svg version="1.1" id="Capa_1" xmlns="http://www.w3.org/2000/svg" xmlns:xlink="http://www.w3.org/1999/xlink" x="0px" y="0px"
	 viewBox="0 0 512 512"  xml:space="preserve">
<g>
	<g>
		<path d="M343.332,90.721h-9.385v31.283h9.385c20.12,0,36.497,16.371,36.497,36.497v19.813c0,20.125-16.377,36.497-36.497,36.497
			H168.668c-20.125,0-36.497-16.371-36.497-36.497v-19.813c0-20.125,16.371-36.497,36.497-36.497h8.342V90.721h-8.342
			c-37.373,0-67.78,30.407-67.78,67.78v19.813c0,37.373,30.407,67.78,67.78,67.78h174.664c37.373,0,67.78-30.402,67.78-67.78
			v-19.813C411.112,121.128,380.705,90.721,343.332,90.721z"/>
	</g>
</g>
<g>
	<g>
		<path d="M379.308,173.1v186.134c0,14.375-11.695,26.069-26.069,26.069H158.24c-14.375,0-26.069-11.695-26.069-26.069V173.1
			h-31.283v186.134c0,31.622,25.73,57.352,57.352,57.352h194.998c31.627,0,57.352-25.725,57.352-57.352V173.1H379.308z"/>
	</g>
</g>
<g>
	<g>
		<path d="M298.493,400.945v38.061h-85.507v-38.061h-31.283v53.703c0,8.639,7.002,15.642,15.642,15.642h116.79
			c8.645,0,15.642-7.002,15.642-15.641v-53.703H298.493z"/>
	</g>
</g>
<g>
	<g>
		<path d="M318.827,0H192.13c-17.539,0-31.283,13.744-31.283,31.283v144.424c0,8.639,7.002,15.642,15.642,15.642h157.98
			c8.639,0,15.642-7.002,15.642-15.642V31.283C350.11,13.744,336.366,0,318.827,0z M318.827,160.065H192.104l-0.214-128.761
			c0,0,0.073-0.021,0.24-0.021h126.697V160.065z"/>
	</g>
</g>
<g>
	<g>
		<rect x="197.344" y="453.084" width="31.283" height="58.917"/>
	</g>
</g>
<g>
	<g>
		<rect x="282.851" y="453.084" width="31.283" height="58.917"/>
	</g>
</g>
<g>
	<g>
		<path d="M255.739,38.582c-8.639,0-15.642,7.002-15.642,15.642v44.839c0,8.639,7.002,15.642,15.642,15.642
			c8.645,0,15.642-7.002,15.642-15.642V54.224C271.381,45.585,264.379,38.582,255.739,38.582z"/>
	</g>
</g>
<g>
	<g>
		<path d="M297.45,38.582c-8.639,0-15.642,7.002-15.642,15.642v44.839c0,8.639,7.002,15.642,15.642,15.642
			c8.645,0,15.642-7.002,15.642-15.642V54.224C313.092,45.585,306.09,38.582,297.45,38.582z"/>
	</g>
</g>
<g>
	<g>
		<path d="M214.029,38.582c-8.639,0-15.642,7.002-15.642,15.642v44.839c0,8.639,7.002,15.642,15.642,15.642
			s15.642-7.002,15.642-15.642V54.224C229.67,45.585,222.668,38.582,214.029,38.582z"/>
	</g>
</g>
<g>
</g>
<g>
</g>
<g>
</g>
<g>
</g>
<g>
</g>
<g>
</g>
<g>
</g>
<g>
</g>
<g>
</g>
<g>
</g>
<g>
</g>
<g>
</g>
<g>
</g>
<g>
</g>
<g>
</g>
</svg>
