<svg id="Layer_1"  viewBox="0 0 512 512" xmlns="http://www.w3.org/2000/svg"><path d="m422 106h-332v240h332zm-30 210h-272v-180h272z"/><path d="m0 46v210h30v150h151v60h210v-60h91v-131.459l30-60v-168.541zm211 390v-30h30v30zm60 0v-30h30v30zm211-228.541-30 60v108.541h-91v60h-30v-60h-271v-150h-30v-150h452z"/><path d="m256 286c24.813 0 45-20.187 45-45 0-11.446-9.266-29.134-27.513-59.845-6.271-10.556-2.627-4.48-17.487-30.611-14.947 26.285-11.193 20.017-17.487 30.611-18.248 30.711-27.513 48.399-27.513 59.845 0 24.813 20.187 45 45 45zm0-75.328c6.577 11.496 14.115 25.447 14.996 30.674-.184 8.112-6.841 14.654-14.996 14.654s-14.812-6.542-14.996-14.653c.881-5.228 8.419-19.179 14.996-30.675z"/></svg>