<?xml version="1.0" encoding="iso-8859-1"?>
<!-- Generator: Adobe Illustrator 19.0.0, SVG Export Plug-In . SVG Version: 6.00 Build 0)  -->
<svg version="1.1" id="Capa_1" xmlns="http://www.w3.org/2000/svg" xmlns:xlink="http://www.w3.org/1999/xlink" x="0px" y="0px"
	 viewBox="0 0 512 512"  xml:space="preserve">
<g>
	<g>
		<path d="M355.327,109.591V87.885c8.03-0.289,14.456-6.872,14.456-14.973c0-8.284-6.716-15-15-15h-49.544
			c2.075-4.375,3.24-9.261,3.24-14.417c0-18.614-15.144-33.758-33.758-33.758c-2.259,0-4.466,0.227-6.602,0.652
			C257.977,3.828,245.907,0,232.953,0h-75.736c-8.284,0-15,6.716-15,15v452c0,24.813,20.187,45,45,45h137.492
			c24.813,0,45-20.187,45-45V124.56C369.709,116.484,363.322,109.917,355.327,109.591z M297.89,87.913h27.438v21.647H297.89V87.913z
			 M232.953,30c19.264,0,34.937,15.672,34.937,34.937v44.623h-95.673V30H232.953z M339.709,467c0,8.271-6.729,15-15,15H187.217
			c-8.271,0-15-6.729-15-15V139.56h167.492V467z"/>
	</g>
</g>
<g>
	<g>
		<path d="M232.873,66.127h-12.819c-8.284,0-15,6.716-15,15s6.716,15,15,15h12.819c8.284,0,15-6.715,15-15
			C247.873,72.843,241.157,66.127,232.873,66.127z"/>
	</g>
</g>
<g>
</g>
<g>
</g>
<g>
</g>
<g>
</g>
<g>
</g>
<g>
</g>
<g>
</g>
<g>
</g>
<g>
</g>
<g>
</g>
<g>
</g>
<g>
</g>
<g>
</g>
<g>
</g>
<g>
</g>
</svg>
