<svg id="Capa_1"  viewBox="0 0 512 512"  xmlns="http://www.w3.org/2000/svg"><g><path d="m437.02 74.98c-48.353-48.351-112.64-74.98-181.02-74.98s-132.667 26.629-181.02 74.98c-48.351 48.353-74.98 112.64-74.98 181.02s26.629 132.667 74.98 181.02c48.353 48.351 112.64 74.98 181.02 74.98s132.667-26.629 181.02-74.98c48.351-48.353 74.98-112.64 74.98-181.02s-26.629-132.667-74.98-181.02zm-41.321 358.698-33.363-14.868-12.213 27.402 16.115 7.182c-17.235 9.659-35.643 16.986-54.834 21.801l-24.482-27.211-22.303 20.066 11.728 13.036c-6.726.597-13.512.914-20.347.914-13.056 0-25.941-1.104-38.553-3.26l-11.285-34.776-28.535 9.26 5.45 16.794c-18.664-6.341-36.43-15.125-52.895-26.205l3.837-36.37-29.834-3.146-1.837 17.417c-2.078-1.931-4.136-3.89-6.153-5.907-12.082-12.081-22.623-25.291-31.534-39.389l18.307-31.68-25.975-15.01-8.837 15.292c-7.745-18.075-13.098-37.161-15.888-56.868l29.568-21.465-17.626-24.279-14.17 10.287c.285-19.983 3.142-39.546 8.426-58.309l35.809-7.597-6.227-29.348-17.277 3.666c8.243-17.8 18.85-34.546 31.66-49.853l35.706 7.604 6.248-29.342-17.142-3.65c14.99-13.145 31.444-24.116 48.978-32.758l29.615 21.533 17.643-24.264-14.279-10.382c18.698-5.757 38.239-9.078 58.236-9.818l18.232 31.606 25.986-14.99-8.773-15.208c19.756 2.327 38.928 7.218 57.132 14.5l3.814 36.422 29.836-3.125-1.837-17.546c15.827 9.48 30.594 20.976 43.978 34.36.772.772 1.524 1.559 2.284 2.34l-11.287 34.693 28.527 9.281 5.444-16.733c11.47 16.201 20.665 33.734 27.442 52.198l-24.514 27.205 22.287 20.082 11.786-13.079c2.792 14.281 4.227 28.938 4.227 43.817 0 5.057-.18 10.085-.507 15.085l-33.348 14.833 12.191 27.41 16.106-7.164c-4.357 19.32-11.237 37.894-20.464 55.333l-36.614-.013-.012 30 17.568.006c-6.406 8.517-13.445 16.647-21.115 24.316-6.395 6.396-13.113 12.352-20.106 17.872z"/><path d="m256 91.813c-90.533 0-164.188 73.654-164.188 164.188s73.655 164.187 164.188 164.187 164.188-73.655 164.188-164.188-73.655-164.187-164.188-164.187zm0 298.375c-73.991 0-134.188-60.196-134.188-134.188s60.197-134.187 134.188-134.187 134.188 60.196 134.188 134.187-60.197 134.188-134.188 134.188z"/><path d="m256 151.813c-57.449 0-104.188 46.738-104.188 104.188s46.739 104.187 104.188 104.187 104.188-46.739 104.188-104.188-46.739-104.187-104.188-104.187zm74.188 104.187c0 8.15-1.34 15.988-3.779 23.33l-25.593-14.776c.528-2.773.816-5.63.816-8.554s-.288-5.781-.816-8.554l25.593-14.776c2.438 7.342 3.779 15.18 3.779 23.33zm-18.809-49.294-25.588 14.773c-4.307-3.722-9.31-6.652-14.791-8.565v-29.576c15.905 3.279 29.957 11.672 40.379 23.368zm-55.379 64.925c-8.619 0-15.631-7.012-15.631-15.631s7.012-15.631 15.631-15.631 15.631 7.012 15.631 15.631-7.012 15.631-15.631 15.631zm-15-88.293v29.576c-5.481 1.914-10.484 4.844-14.791 8.565l-25.588-14.773c10.422-11.696 24.474-20.089 40.379-23.368zm-59.187 72.662c0-8.15 1.34-15.988 3.779-23.33l25.593 14.776c-.528 2.773-.816 5.63-.816 8.554s.288 5.781.816 8.554l-25.593 14.776c-2.439-7.342-3.779-15.18-3.779-23.33zm18.808 49.294 25.588-14.773c4.307 3.722 9.31 6.652 14.791 8.565v29.576c-15.905-3.279-29.957-11.672-40.379-23.368zm70.379 23.368v-29.576c5.481-1.914 10.484-4.844 14.791-8.565l25.588 14.773c-10.422 11.696-24.474 20.089-40.379 23.368z"/></g></svg>