<?xml version="1.0" encoding="iso-8859-1"?>
<!-- Generator: Adobe Illustrator 19.0.0, SVG Export Plug-In . SVG Version: 6.00 Build 0)  -->
<svg version="1.1" id="Capa_1" xmlns="http://www.w3.org/2000/svg" xmlns:xlink="http://www.w3.org/1999/xlink" x="0px" y="0px"
	 viewBox="0 0 512 512"  xml:space="preserve">
<g>
	<g>
		<path d="M256,0C138.368,0,42.667,114.842,42.667,256S138.368,512,256,512s213.333-114.842,213.333-256S373.632,0,256,0z
			 M256,494.933C147.78,494.933,59.733,387.746,59.733,256S147.78,17.067,256,17.067S452.267,124.254,452.267,256
			S364.22,494.933,256,494.933z"/>
	</g>
</g>
<g>
	<g>
		<path d="M256,34.133c-98.816,0-179.2,99.524-179.2,221.867S157.184,477.867,256,477.867c98.807,0,179.2-99.524,179.2-221.867
			S354.816,34.133,256,34.133z M256,460.8c-89.404,0-162.133-91.878-162.133-204.8S166.596,51.2,256,51.2
			c89.395,0,162.133,91.878,162.133,204.8S345.404,460.8,256,460.8z"/>
	</g>
</g>
<g>
	<g>
		<path d="M376.653,92.015c-21.154-23.876-46.874-41.293-74.385-50.381l-4.898-1.621L76.809,253.218l0.009,3.635
			c0.111,35.823,7.305,71.398,20.804,102.895l4.898,11.443L382.037,98.099L376.653,92.015z M108.672,341.325
			c-9.216-25.301-14.268-52.966-14.754-80.905L301.722,59.537c20.54,7.68,39.919,20.625,56.627,37.854L108.672,341.325z"/>
	</g>
</g>
<g>
</g>
<g>
</g>
<g>
</g>
<g>
</g>
<g>
</g>
<g>
</g>
<g>
</g>
<g>
</g>
<g>
</g>
<g>
</g>
<g>
</g>
<g>
</g>
<g>
</g>
<g>
</g>
<g>
</g>
</svg>
