<?xml version="1.0" encoding="iso-8859-1"?>
<!-- Generator: Adobe Illustrator 19.0.0, SVG Export Plug-In . SVG Version: 6.00 Build 0)  -->
<svg version="1.1" id="Capa_1" xmlns="http://www.w3.org/2000/svg" xmlns:xlink="http://www.w3.org/1999/xlink" x="0px" y="0px"
	 viewBox="0 0 512 512"  xml:space="preserve">
<g>
	<g>
		<path d="M434.237,150.158h-35.743l5.857-29.771c1.838-9.337-5.321-18.038-14.836-18.038h-59.062
			c-9.517,0-16.673,8.703-14.836,18.038l5.857,29.771H285.73c-37.706,0-69.217,26.978-76.275,62.643c-9.314,0-175.593,0-194.335,0
			C6.77,212.8,0,219.57,0,227.92v50.904c0,8.35,6.77,15.12,15.12,15.12c39.321,0,178.562,0,192.847,0v61.231
			c0,30.038,24.437,54.475,54.475,54.475h195.083c30.038,0,54.475-24.437,54.475-54.475V227.92
			C512,185.042,477.116,150.158,434.237,150.158z M74.734,263.705H30.24v-20.664h44.493V263.705z M207.968,263.705H104.974v-20.664
			h102.994V263.705z M371.13,132.589l-3.456,17.569h-15.381l-3.456-17.569H371.13z M285.73,180.398c77.588,0,78.647,0,148.507,0
			c20.919,0,38.726,13.589,45.057,32.402h-238.62C247.005,193.988,264.811,180.398,285.73,180.398z M457.525,379.411H262.442
			c-13.363,0-24.235-10.871-24.235-24.235c0-12.283,0-100.823,0-112.136h243.551v112.136h0.001
			C481.76,368.54,470.888,379.411,457.525,379.411z"/>
	</g>
</g>
<g>
</g>
<g>
</g>
<g>
</g>
<g>
</g>
<g>
</g>
<g>
</g>
<g>
</g>
<g>
</g>
<g>
</g>
<g>
</g>
<g>
</g>
<g>
</g>
<g>
</g>
<g>
</g>
<g>
</g>
</svg>
