<svg id="Layer_3"  viewBox="0 0 64 64" xmlns="http://www.w3.org/2000/svg"><g><path d="m51.145 33.303c1.213 2.014 1.855 4.33 1.855 6.697 0 7.168-5.832 13-13 13s-13-5.832-13-13 5.832-13 13-13c2.33 0 4.615.624 6.609 1.803l1.018-1.722c-2.302-1.361-4.939-2.081-7.627-2.081-8.271 0-15 6.729-15 15s6.729 15 15 15 15-6.729 15-15c0-2.731-.741-5.403-2.143-7.729z"/><path d="m62 26c.553 0 1-.448 1-1s-.447-1-1-1c-2.757 0-5-2.243-5-5 0-.552-.447-1-1-1s-1 .448-1 1c0 1.06-.337 2.041-.902 2.851-3.758-2.92-8.351-4.601-13.109-4.808.006-.143-.008-.288-.065-.425-.154-.374-.52-.618-.924-.618h-3.813c1.646-.848 3.173-1.946 4.52-3.293.286-.286.372-.716.217-1.09-.154-.373-.52-.617-.924-.617h-3.813c1.646-.848 3.173-1.946 4.52-3.293.286-.286.372-.716.217-1.09-.154-.373-.52-.617-.924-.617h-3.813c1.646-.848 3.173-1.946 4.52-3.293.286-.286.372-.716.217-1.09-.154-.373-.52-.617-.924-.617h-38c-.404 0-.77.244-.924.617-.155.374-.069.804.217 1.09 1.347 1.347 2.874 2.445 4.52 3.293h-3.813c-.404 0-.77.244-.924.617-.155.374-.069.804.217 1.09 1.347 1.347 2.874 2.445 4.52 3.293h-3.813c-.404 0-.77.244-.924.617-.155.374-.069.804.217 1.09 1.347 1.347 2.874 2.445 4.52 3.293h-3.813c-.404 0-.77.244-.924.617-.155.374-.069.804.217 1.09 1.347 1.347 2.874 2.445 4.52 3.293h-3.813c-.404 0-.77.244-.924.617-.155.374-.069.804.217 1.09 1.347 1.347 2.874 2.445 4.52 3.293h-3.813c-.404 0-.77.244-.924.617-.155.374-.069.804.217 1.09 1.347 1.347 2.874 2.445 4.52 3.293h-3.813c-.404 0-.77.244-.924.617-.155.374-.069.804.217 1.09 1.347 1.347 2.874 2.445 4.52 3.293h-3.813c-.404 0-.77.244-.924.617-.155.374-.069.804.217 1.09 1.347 1.347 2.874 2.445 4.52 3.293h-3.813c-.404 0-.77.244-.924.617-.155.374-.069.804.217 1.09 1.347 1.347 2.874 2.445 4.52 3.293h-3.813c-.404 0-.77.244-.924.617-.155.374-.069.804.217 1.09 3.412 3.413 7.951 5.293 12.778 5.293h6.968c4.151 6.034 11.1 10 18.961 10 12.683 0 23-10.318 23-23 0-4.677-1.397-9.132-4.018-12.96.841-.643 1.88-1.04 3.018-1.04zm-6-3.397c.591.981 1.417 1.806 2.397 2.397-.98.591-1.807 1.417-2.397 2.397-.591-.981-1.417-1.806-2.397-2.397.98-.591 1.806-1.417 2.397-2.397zm-51.286-19.603h32.572c-2.71 1.949-5.953 3-9.357 3h-13.858c-3.404 0-6.647-1.051-9.357-3zm0 5h9.357 13.857 9.357c-2.71 1.949-5.953 3-9.357 3h-13.857c-3.404 0-6.647-1.051-9.357-3zm0 5h9.357 13.857 9.357c-2.71 1.949-5.953 3-9.357 3h-13.857c-3.404 0-6.647-1.051-9.357-3zm0 5h9.357 13.857 5.365c-2.243.685-4.342 1.704-6.238 3h-12.984c-3.404 0-6.647-1.051-9.357-3zm0 5h9.357 10.453c-1.005.915-1.925 1.921-2.755 3h-7.698c-3.404 0-6.647-1.051-9.357-3zm0 5h9.357 6.316c-.587.956-1.107 1.958-1.552 3h-4.764c-3.404 0-6.647-1.051-9.357-3zm0 5h9.357 4.021c-.312.973-.557 1.975-.737 3h-3.284c-3.404 0-6.647-1.051-9.357-3zm0 5h9.357 3.021c-.057.66-.092 1.326-.092 2 0 .335.011.668.025 1h-2.954c-3.404 0-6.647-1.051-9.357-3zm0 5h9.357 3.131c.134 1.022.333 2.024.597 3h-3.728c-3.404 0-6.647-1.051-9.357-3zm9.357 8c-3.404 0-6.647-1.051-9.357-3h9.357 4.366c.386 1.037.844 2.039 1.369 3zm25.929 10c-11.579 0-21-9.42-21-21s9.421-21 21-21c4.558 0 8.997 1.51 12.62 4.239-.764.474-1.656.761-2.62.761-.553 0-1 .448-1 1s.447 1 1 1c2.757 0 5 2.243 5 5 0 .552.447 1 1 1s1-.448 1-1c0-.87.243-1.676.636-2.39 2.199 3.393 3.364 7.3 3.364 11.39 0 11.58-9.421 21-21 21z"/></g></svg>