<svg id="Layer_3"  viewBox="0 0 64 64"  xmlns="http://www.w3.org/2000/svg"><path d="m52 43.955c0-1.404-.226-2.792-.67-4.125l-.737-2.212c-1.057-3.174-1.593-6.476-1.593-9.818 0-4.373.9-8.615 2.676-12.608l1.819-4.095-1.429-.095c-.204-.015-2.991-.183-6.188.411-.9-5.925-6.752-10.413-13.878-10.413-7.127 0-12.978 4.487-13.878 10.413-3.198-.595-5.985-.426-6.188-.411l-1.429.095 1.819 4.095c1.776 3.994 2.676 8.236 2.676 12.608 0 3.341-.536 6.644-1.593 9.816l-.738 2.213c-.443 1.334-.669 2.722-.669 4.126 0 5.086 2.931 9.489 7.187 11.64-2.462 1.085-4.187 3.546-4.187 6.405v1h34v-1c0-2.859-1.725-5.32-4.187-6.405 4.256-2.151 7.187-6.555 7.187-11.64zm-28-3.553c0-6.672 2.906-12.866 8-17.118 5.094 4.251 8 10.446 8 17.118v2.598h-2v-2.599c0-5.077-1.868-9.923-5.261-13.647l-.739-.811-.739.812c-3.393 3.723-5.261 8.57-5.261 13.646v2.599h-2zm12 2.598h-8v-2.599c0-4.194 1.413-8.212 4-11.436 2.587 3.224 4 7.242 4 11.436zm3 2-7 9.333-7-9.333zm-22.478 5.971c-1.366-1.656-2.256-3.717-2.469-5.971h6.947zm6.478-5.304 7 9.333h-4.955c-2.702 0-5.177-.978-7.098-2.595zm18 0 5.054 6.738c-1.922 1.616-4.397 2.595-7.099 2.595h-4.955zm2-.667h6.947c-.213 2.255-1.103 4.315-2.469 5.971zm6.433-4.539c.276.826.449 1.677.524 2.539h-7.957v-2.598c0-2.537-.394-5.007-1.132-7.35 1.416-3.284 3.562-6.156 6.289-8.435-.1 1.053-.157 2.114-.157 3.183 0 3.557.57 7.072 1.696 10.449zm-17.433-37.461c6.191 0 11.249 3.841 11.916 8.878-.656.188-1.307.418-1.943.69-.284-4.21-4.642-7.568-9.973-7.568s-9.689 3.358-9.973 7.567c-.637-.271-1.287-.502-1.943-.69.667-5.036 5.724-8.877 11.916-8.877zm-8.02 13.112c1.359 1.271 2.02 2.87 2.02 4.888h2c0-2.565-.893-4.701-2.653-6.349-.399-.373-.838-.697-1.293-.999-.032-.216-.054-.434-.054-.652 0-3.309 3.589-6 8-6s8 2.691 8 6c0 .218-.022.436-.054.653-.455.302-.894.626-1.293.999-1.76 1.647-2.653 3.783-2.653 6.348h2c0-2.016.66-3.614 2.017-4.885 2.842-2.662 7.951-3.094 10.454-3.137l-.623 1.402c-.104.234-.195.473-.293.709-6.164.432-9.555 2.516-9.555 5.911h2c0-2.618 3.743-3.529 6.767-3.841-.518 1.516-.92 3.062-1.209 4.63-3.229 2.263-5.839 5.228-7.668 8.684-1.6-3.583-4.065-6.766-7.276-9.263l-.614-.477-.614.477c-3.21 2.497-5.675 5.68-7.275 9.262-1.83-3.457-4.442-6.422-7.669-8.683-.29-1.569-.692-3.114-1.209-4.63 3.024.312 6.767 1.223 6.767 3.841h2c0-3.395-3.391-5.479-9.554-5.911-.099-.236-.189-.474-.293-.709l-.624-1.403c2.5.04 7.602.469 10.451 3.135zm-8.676 22.137c1.126-3.376 1.696-6.892 1.696-10.449 0-1.069-.057-2.13-.157-3.183 2.724 2.278 4.874 5.149 6.29 8.432-.739 2.343-1.133 4.815-1.133 7.353v2.598h-7.956c.075-.862.248-1.713.523-2.538zm26.696 18.751c2.415 0 4.435 1.721 4.899 4h-29.798c.465-2.279 2.484-4 4.899-4h3.045 13.91z"/></svg>